<!-- Generated by IcoMoon.io -->
<svg version="1.1" xmlns="http://www.w3.org/2000/svg" width="53" height="32" viewBox="0 0 53 32">
<title>augusta_colour</title>
<path fill="#606163" d="M10.464 23.438c-0.106-0.106-0.317-0.211-0.423-0.317-0.123-0.153-0.229-0.327-0.311-0.514l-0.006-0.015-2.642-6.87c-0.106-0.423-0.211 0-0.317 0.211-0.106 0.106-0.317 0.74-0.423 0.846l-1.585 4.017c-1.48 0.211-2.96 0.211-3.911-0.846 0.634 1.374 2.22 1.48 3.699 1.374l-0.529 1.374c-0.317 0.951-0.951 0.634-0.951 0.846 0 0.106 0.211 0.106 0.211 0.106 0.317 0 0.634-0.106 0.951-0.106 0.211 0 0.529 0.106 0.74 0.106 0.106 0 0.211 0 0.211-0.106s-0.634-0.106-0.634-0.529c0-0.317 0.423-1.374 0.529-1.797 1.48 0 2.854-0.106 3.382 0.74 0.106 0.211 0.317 0.951 0.317 1.163 0 0.423-0.634 0.317-0.634 0.423s1.268 0 1.48 0c0.317 0 1.163 0.211 1.163 0 0-0.106-0.211-0.106-0.317-0.106zM22.197 29.886c1.48 0.317 1.268 2.008-0.529 2.008-1.691 0-2.008-1.691-0.529-2.008 0.423-0.106 0.74-0.106 1.057 0zM25.262 31.789h0.106v-1.797c0-0.106 0-0.106-0.106-0.106h0.846c-0.106 0 0 0.106 0 0.211l0.634 0.951c0.106-0.106 0.74-1.057 0.74-1.057v-0.106h0.846c-0.001 0-0.001-0-0.002-0-0.057 0-0.103 0.046-0.103 0.103 0 0.001 0 0.002 0 0.002v-0 1.797h0.106v0.106h-0.74v-0.106h0.106v-1.374l-0.951 1.48-0.846-1.48v1.374h0.106v0.106h-0.74zM32.132 26.504c0-0.106-0.106-0.211-0.317-0.211-0.74 0-1.374 0.74-1.374 1.268 0 0.634 0.951 0.423 1.268 0l-0.106-0.106c-0.211 0.106-0.423 0.211-0.529 0.211-0.317 0-0.211-0.317-0.106-0.423 0.74-0.211 1.163-0.423 1.163-0.74zM51.581 19.95c-0.846 0.951-2.114 1.057-3.488 0.846-0.423-1.163-0.951-2.431-1.374-3.699-0.106-0.211-0.529-1.374-0.529-1.374-0.211-0.423-0.317 0-0.423 0.211 0 0.106-0.317 0.74-0.317 0.846l-2.325 5.919c-0.423 0.951-0.951 0.634-0.951 0.846 0 0.106 0.106 0.106 0.211 0.106 0.317 0 0.529-0.106 0.846-0.106 0.211 0 0.529 0.106 0.846 0.106 0.106 0 0.106 0 0.106-0.106s-0.634-0.106-0.634-0.529c0-0.211 0.211-0.634 0.317-0.951v0.106c0.423-1.057 1.903-1.057 3.382-0.951 0.106 0.317 0.634 1.585 0.634 1.903 0 0.423-0.634 0.317-0.634 0.423s1.163 0 1.374 0c0.423 0 1.163 0.211 1.163 0 0-0.106-0.529-0.106-0.634-0.423-0.423-0.529-0.529-1.163-0.846-1.797 1.374 0 2.748-0.106 3.277-1.374zM5.285 20.69c0.423-0.846 0.951-2.325 1.268-3.065 0.106-0.317 0.211-0.106 0.211 0 0.106 0.211 1.057 2.537 1.057 2.642l0.211 0.529c-0.74-0.317-1.691-0.211-2.748-0.106zM17.44 29.992c0-0.001 0-0.001 0-0.002 0-0.057-0.046-0.103-0.103-0.103-0.001 0-0.002 0-0.002 0h0.74l-0.106 0.106v1.797h0.106v0.106h-0.74v-0.106h0.106v-0.74h-1.48v0.74h0.106v0.106h-0.74v-0.106h0.106v-1.797c0-0.001 0-0.001 0-0.002 0-0.057-0.046-0.103-0.103-0.103-0.001 0-0.002 0-0.002 0h0.74c-0.001 0-0.001-0-0.002-0-0.057 0-0.103 0.046-0.103 0.103 0 0.001 0 0.002 0 0.002v-0 0.634h1.48zM35.197 31.26c0 0.317 1.585 0.423 1.585 0s-1.797 0.106-1.797-0.74c0-0.634 0.951-0.74 1.48-0.634 0.317 0 0.74 0.211 0.846 0.106l-0.317 0.529c-0.106-0.423-1.48-0.529-1.48-0.106s1.797-0.106 1.797 0.846c0 0.74-1.585 0.74-2.114 0.529-0.106-0.106-0.211-0.106-0.211 0l-0.106-0.106zM32.766 30.309c0-0.001 0-0.001 0-0.002 0-0.057-0.046-0.103-0.103-0.103-0.001 0-0.002 0-0.002 0h-1.585v0.423c0.211 0 1.057 0.106 1.057 0 0.106 0 0.106 0 0.106-0.106h0.106v0.634h-0.106c0-0.106-0.106-0.106-0.211-0.106h-0.951v0.423c0.317 0 1.585 0.106 1.691 0h0.106v0.528c0-0.106-0.106-0.106-0.211-0.106h-2.114v-0.106h0.106v-1.797l-0.106-0.106c0.211 0 2.114 0 2.22-0.106h0.106v0.529zM21.351 30.203c-1.057 0.317-0.74 1.374 0.317 1.374s1.374-1.057 0.423-1.374zM22.831 25.13c-0.846 0-1.163 0.634-1.48 1.268-0.211 0-0.423-0.106-0.423 0.106 0 0.106 0.106 0 0.423 0l-0.634 1.903c-0.211 0.423-0.529 0.317-0.634 0.106-0.106-0.106-0.211 0-0.211 0.106 0 0.317 0.423 0.423 0.846 0.106s0.846-1.691 1.057-2.22h0.529c0.106 0 0.211 0 0.106-0.106h-0.634c0.211-0.423 0.423-1.057 0.846-1.057 0.317 0 0.211 0.317 0.423 0.317s0.423-0.529-0.211-0.529zM31.287 26.609c0.634-0.423 0.74 0.106-0.317 0.423 0.128-0.118 0.234-0.258 0.313-0.414l0.004-0.008zM28.538 27.349c0 0.106-0.317 0.317-0.423 0.317 0 0 0.529-0.951 0.529-1.163 0-0.106 0-0.211-0.317-0.211s-0.846 0.423-1.057 0.74c0.106-0.317 0.317-0.529 0.211-0.634-0.106-0.317-1.057 0.211-0.951 0.317s0.317-0.106 0.529-0.106l-0.529 1.268c0 0.106 0.211 0.106 0.317 0 0.317-0.423 0.423-0.74 0.74-0.951 0.317-0.317 0.951-0.74 0.634-0.106l-0.529 0.951c0 0.317 0.846 0 0.951-0.317zM24.733 25.447c-0.317 0-0.423 0.423-0.106 0.423s0.423-0.423 0.106-0.423zM24.628 26.504c0.317-0.423-0.74 0-0.846 0.211-0.106 0 0 0.106 0 0.106 0.317-0.211 0.423-0.211 0.423-0.211l-0.634 1.163c0 0.423 1.057-0.106 1.163-0.317l-0.106-0.106c-0.148 0.136-0.324 0.244-0.518 0.314l-0.011 0.003zM44.393 20.796c0.317-0.846 0.951-2.537 1.268-3.171 0.106-0.317 0.106-0.106 0.211 0 0.106 0.211 0.951 2.537 0.951 2.642l0.211 0.423c-1.057-0.106-2.008-0.211-2.642 0.106zM42.49 18.259s0-0.317 0.106-0.423c0.106-0.634 0.211-0.423-1.163-0.423-0.634 0-2.748 0-3.277-0.106-0.317 0-0.211-0.211-0.317 0.211-0.106 0.106-0.317 0.74-0.106 0.74 0.106 0 0-0.106 0.106-0.211 0-0.106 0.106-0.211 0.317-0.211h1.48c0.106 0 0.106 0.423 0.106 0.74 0 0.529 0.106 4.334 0 4.651s-0.634 0.211-0.634 0.317 0.846 0 1.163 0c0.211 0 1.057 0.106 1.057 0s-0.423 0-0.634-0.317c-0.106-0.211-0.106-1.057-0.106-1.585v-3.699c0-0.106 0-0.106 0.106-0.106 0.211-0.106 1.268 0 1.374 0 0.529 0.211 0.211 0.423 0.423 0.423zM35.303 20.268l-0.846-0.529c-0.529-0.317-0.846-0.634-0.846-1.268 0-1.268 2.114-1.163 2.325-0.211 0 0.106 0 0.317 0.106 0.317s0.106-0.529 0.106-0.634v-0.634c-0.106 0-0.106 0.106-0.317 0.106-0.317 0-1.268-0.423-2.008 0.106-1.163 0.529-0.951 2.22 0.106 2.854l0.951 0.634c0.423 0.317 0.846 0.74 0.846 1.163 0 0.003 0 0.007 0 0.010 0 0.428-0.206 0.807-0.525 1.044l-0.003 0.002c-0.423 0.317-1.585 0.211-1.903-0.317-0.106-0.317-0.106-0.634-0.211-0.634s-0.106 0.951-0.106 1.057c0 0.001-0 0.001-0 0.002 0 0.057 0.046 0.103 0.103 0.103 0.001 0 0.002 0 0.002-0h-0c0.846 0.317 1.797 0.423 2.537-0.106 0.451-0.34 0.74-0.875 0.74-1.478 0-0.001 0-0.001 0-0.002v0c0-0.74-0.529-1.268-1.057-1.585zM31.498 17.414h-0.74c-0.317 0-0.951-0.106-0.951 0s0.317 0.106 0.634 0.211c0.211 0.211 0.211 3.277 0.211 3.805 0 1.48-0.846 1.903-2.114 1.903-0.74 0-1.268-0.211-1.585-0.74-0.211-0.317-0.211-0.74-0.211-1.163v-2.22c0-0.846 0-1.585 0.317-1.691l0.211-0.106c0-0.106-0.529 0-0.951 0h-1.057c0 0.106 0.423 0.106 0.529 0.211s0.106 0.634 0.106 0.846v3.277c0 1.48 1.057 2.008 2.537 2.008 1.691 0 2.642-0.74 2.642-2.537v-2.431c0-0.423-0.106-1.163 0.317-1.268 0.211 0 0.317 0 0.317-0.106zM23.782 20.479c-0.106 0-0.529 0.106-0.74 0.106-0.529 0-1.057-0.211-1.057 0 0 0.106 0.211 0 0.423 0.211 0.211 0.106 0.106 1.057 0.106 1.268 0 0.423 0 0.951-0.211 1.057-0.211 0.211-0.634 0.317-0.951 0.317-0.634 0-1.268-0.211-1.691-0.634-0.634-0.634-0.846-1.585-0.846-2.748 0-3.277 3.488-2.642 4.228-1.797 0.317 0.317 0.106 0.634 0.317 0.634 0.106 0 0-0.74 0.106-0.846 0-0.423 0.106-0.529 0-0.529s-0.106 0.106-0.317 0.106-0.846-0.317-2.114-0.317c-0.423 0-0.951 0-1.374 0.211-1.163 0.423-1.797 1.691-1.797 2.854 0 2.325 1.374 3.382 3.488 3.382 0.74 0 1.585-0.211 1.903-0.423 0.211-0.211-0.106-2.325 0.317-2.642 0.119-0.020 0.225-0.057 0.323-0.108l-0.006 0.003c0-0.001 0-0.001 0-0.002 0-0.057-0.046-0.103-0.103-0.103-0.001 0-0.002 0-0.002 0h0zM16.7 17.414h-0.634c-0.423 0-1.057-0.106-1.057 0s0.423 0.106 0.634 0.211c0.211 0.211 0.211 3.277 0.211 3.805 0 1.48-0.846 1.903-2.114 1.903-0.634 0-1.268-0.211-1.585-0.74-0.211-0.317-0.211-0.74-0.211-1.163v-2.22c0-0.846 0-1.585 0.317-1.691 0.119-0.020 0.225-0.057 0.323-0.108l-0.006 0.003c0-0.106-0.634 0-1.057 0h-0.951c0 0.106 0.317 0.106 0.423 0.211s0.106 0.634 0.106 0.846v3.277c0 1.48 1.057 2.008 2.537 2.008 1.691 0 2.642-0.74 2.642-2.537v-2.431c0-0.423-0.106-1.163 0.423-1.268 0.106 0 0.211 0 0.211-0.106z"></path>
<path fill="#5a5a30" d="M25.262 2.51l-0.529-1.903c-0.65 0.227-1.212 0.55-1.7 0.958l0.008-0.007 1.268 1.48c0.211-0.211 0.634-0.423 0.951-0.528zM29.595 12.974h2.748v-1.691h-2.748zM18.286 14.666h16.277v-0.634h-16.277zM19.343 13.714h14.269v-0.528h-14.269zM20.505 12.974h2.642v-1.691h-2.642zM29.595 10.966h1.903v-1.691h-1.903zM29.595 9.064h1.903v-1.585h-1.903zM29.595 7.161h1.903v-1.585h-1.903zM21.245 10.966h1.903v-1.691h-1.903zM21.245 9.064h1.903v-1.585h-1.903zM21.245 7.161h1.903v-1.585h-1.903zM29.595 5.364h2.008c0-0.74-0.211-1.374-0.423-1.903l-1.797 0.74c0.125 0.345 0.201 0.743 0.211 1.158l0 0.005zM29.278 4.096l1.797-0.846c-0.317-0.634-0.634-1.163-1.163-1.585l-1.268 1.48c0.32 0.222 0.549 0.554 0.632 0.941l0.002 0.010zM28.538 3.039l1.268-1.48c-0.479-0.402-1.041-0.725-1.654-0.94l-0.038-0.011-0.634 1.903c0.423 0.106 0.74 0.317 1.057 0.528zM23.465 4.202l-1.797-0.74c-0.317 0.528-0.423 1.163-0.423 1.903h2.008c0-0.423 0-0.846 0.211-1.163zM24.205 3.144l-1.374-1.48c-0.423 0.423-0.846 0.951-1.057 1.585l1.691 0.846c0.211-0.423 0.423-0.74 0.74-0.951zM26.424 2.51h0.846l0.529-2.431c-0.412-0.051-0.89-0.079-1.374-0.079s-0.962 0.029-1.431 0.085l0.057-0.006 0.529 2.431z"></path>
<path fill="#a18700" d="M33.295 8.112c1.585-1.48 0.106-3.382 0.106-3.382 0.317 1.163-0.423 1.691-0.634 2.22-0.211 1.057 0.529 1.163 0.529 1.163zM33.718 26.609v0.74l19.131-0.317zM19.026 26.609l-19.026 0.423 19.026 0.317zM20.188 7.689v-0.106c0.211-0.317 0-0.846 0.74-1.268 0 0-1.797 0.211-1.48 1.797h0.106c-0.529 0.528-0.951 1.057-1.268 1.903 4.017-6.659 14.586 4.228 15.96-3.171-1.797 5.602-9.513-2.008-14.058 0.846zM27.904 5.364c-1.163 0.846-1.797 0.423-2.537 0.529-1.374 0.317-1.268 0.951-1.268 0.951 2.537 1.163 3.805-1.48 3.805-1.48zM27.164 9.064c-0.951-0.634-1.374-0.211-1.374-0.211 0.74 2.431 3.382 1.374 3.382 1.374-1.268-0.106-1.374-0.846-2.008-1.163z"></path>
</svg>
