<!-- Generated by IcoMoon.io -->
<svg version="1.1" xmlns="http://www.w3.org/2000/svg" width="23" height="32" viewBox="0 0 23 32">
<title>avi_grey</title>
<path d="M22.396 0.406c-0.247-0.017-6.020-0.406-11.024-0.406-5.078 0-10.813 0.389-11.054 0.406-0.178 0.013-0.318 0.161-0.318 0.341v0 30.585c0 0.182 0.142 0.33 0.321 0.341l0.001 0c0.057 0.003 5.908 0.327 11.050 0.327 5.156 0 10.963-0.324 11.019-0.327 0.18-0.011 0.322-0.159 0.322-0.341v0-30.585c-0-0.18-0.14-0.328-0.317-0.341l-0.001-0zM22.331 31.292c-0.175 0.010-1.331 0.072-2.991 0.14 0.052-0.366 0.081-0.789 0.081-1.219 0-0.018-0-0.036-0-0.054v0.003c0.002-0.467 0-2.374 0-3.171v-0.493s0.002-0.764 0.002-1.604v-0.635c0.006-0.025 0.038-0.022 0.038-0.022l0.596-0.002h0.583c0.011 0 0.025 0 0.039 0 0.464 0 0.92-0.033 1.366-0.097l-0.051 0.006c-0.402-0.059-0.866-0.093-1.339-0.093-0.005 0-0.011 0-0.016 0h-0.585l-0.629 0.002c-0.089 0-0.192 0.038-0.189 0.206v0.635c0 0.84 0.002 1.604 0.002 1.604v0.494c0 0.797-0.001 2.704 0 3.171-0 0.009-0 0.019-0 0.030 0 0.438 0.030 0.868 0.087 1.29l-0.005-0.049c-0.589 0.024-1.24 0.048-1.933 0.071v-5.060c1.049-0.66 1.757-2.061 1.757-2.061h-0.003l0.002-0.002-0.060 0.002c-0.429 0.688-1.312 1.531-2.162 1.801l-0.002 0.268v2.819s0.016 0.647-1.022-0.067v2.342q-0.389 0.011-0.786 0.019l-0.002-2.943s-1.38-1.294-3.204-1.401l0.002 4.39q-0.268 0.001-0.535 0.001h-0.31v-4.388c-0.017-0.001-0.038-0.001-0.058-0.001-0.489 0-0.909 0.298-1.089 0.722l-0.003 0.008v3.654c-0.442-0.005-0.787-0.009-1.133-0.015l0.147 0.002v-4.079c-0.285 0.175-0.478 0.475-0.504 0.822l-0 0.003v3.245c-0.409-0.008-0.815-0.017-1.214-0.027v-3.34c-0.284 0.175-0.477 0.475-0.502 0.822l-0 0.003v2.502q-0.525-0.014-1.028-0.031l-0.003-4.487c0-0.001 0-0.002 0-0.003 0-0.509-0.225-0.965-0.581-1.275l-0.002-0.002c-0.295-0.287-0.671-0.469-0.986-0.726-0.165-0.121-0.301-0.269-0.405-0.44l-0.004-0.007-0.010-0.014c-0.010-0.016-0.021-0.036-0.031-0.057l-0.002-0.004c-0.022-0.040-0.041-0.079-0.066-0.126-0.010-0.019-0.023-0.034-0.039-0.046l-0-0-0.022-0.017c0.155 0.92 1.135 1.407 1.559 2.179 0.233 0.422 0.184 0.893 0.186 1.359 0 0.307 0.002 0.619 0.002 0.924 0.002 0.719-0.003 1.652-0.007 2.368-0.001 0.134 0 0.24 0.002 0.359-2.125-0.070-3.825-0.145-5.522-0.237l0.636 0.028v-30.507c0.405-0.027 6.083-0.402 10.99-0.402 4.89 0 10.506 0.372 10.958 0.402z"></path>
<path d="M1.641 23.175c0-0.006 0-0.013 0-0.019 0-0.438-0.033-0.868-0.097-1.288l0.006 0.047c-0.059 0.374-0.093 0.806-0.093 1.245 0 0.006 0 0.011 0 0.016v-0.001c-0.002 0.569 0 3.416 0 3.416-0.002 3.039-0.001 3.039 0 3.416 0 0.005 0 0.010 0 0.016 0 0.44 0.034 0.872 0.099 1.294l-0.006-0.047c0.058-0.374 0.091-0.804 0.091-1.243 0-0.007 0-0.014-0-0.020v0.001c0.001-0.377 0.002-0.377 0-3.416 0 0 0.002-2.847 0-3.416zM9.223 4.629c-0.104 0.027-0.204 0.055-0.303 0.084 0.019-0.048 0.038-0.096 0.054-0.143 0.027-0.083-0.055-0.249-0.155-0.249-0.036-0.006-0.076-0.009-0.118-0.009-0.101 0-0.197 0.020-0.285 0.056l0.005-0.002c-0.082 0.056-0.154 0.115-0.221 0.179l0.001-0.001c-0.177 0.146-0.341 0.305-0.526 0.44-0.009 0.008-0.187 0.124-0.195 0.102-0.076-0.224-0.283-0.382-0.527-0.383h-0s-0.428-0.019-1.036 0.654l-0.023 0.013c-0.111-0.071-0.245-0.119-0.388-0.132l-0.003-0c-0.018-0.005-0.038-0.008-0.059-0.008-0.001 0-0.002 0-0.003 0h0c-0.103-0.012-0.223-0.020-0.344-0.020-0.017 0-0.034 0-0.051 0l0.003-0c0.165-0.366 0.527-1.067 0.721-1.429 0.054-0.063 0.095-0.139 0.119-0.222l0.001-0.004c-0.061-0.129-0.125-0.292-0.182-0.46l-0.010-0.035-0.022 0.009c-0.048 0.024-0.086 0.061-0.112 0.105l-0.001 0.001c-0.146 0.169-0.426 0.585-0.918 1.617-0.067 0.115-0.123 0.22-0.157 0.291-0.158-0.017-0.341-0.027-0.526-0.027-0.243 0-0.481 0.017-0.715 0.049l0.027-0.003 0.020-0.044c0.272-0.511 1.008-1.67 1.412-2.303 0.044-0.060 0.087-0.119 0.127-0.175 0.060-0.073 0.11-0.157 0.146-0.247l0.002-0.006s-0.113-0.414-0.258-0.414l-0.045 0.028-0.007 0.009-0.005 0.006c-0.047 0.061-0.233 0.305-0.486 0.642-0.035 0.041-0.068 0.085-0.098 0.132l-0.003 0.005c-0.468 0.616-0.939 1.317-1.369 2.045l-0.056 0.103c-0.020 0.026-0.032 0.044-0.032 0.044-0.005 0.011-0.010 0.024-0.012 0.037l-0 0.001c-0.035 0.065-0.069 0.131-0.098 0.192-0.027 0.026-0.058 0.048-0.092 0.064l-0.002 0.001c-0.165 0.029-0.324 0.059-0.476 0.087-0 0-0.001 0-0.002 0-0.064 0-0.125 0.013-0.18 0.037l0.003-0.001c-0.14 0.029-0.27 0.056-0.391 0.082-0.204 0.022-0.39 0.068-0.565 0.135l0.015-0.005c-0.051 0.011-0.081 0.019-0.081 0.019l0.005 0.014c-0.122 0.063-0.211 0.149-0.211 0.261v0.011c0.018 0.097 0.084 0.175 0.172 0.21l0.002 0.001c0.144 0.075 0.313 0.12 0.492 0.125l0.002 0c0.281 0.064 0.53 0.164 0.756 0.297l-0.012-0.007c-0.203 0.436-0.363 0.942-0.455 1.472l-0.005 0.036c0.062 0.158 0.098 0.342 0.1 0.533v0.001h0.046c0.153-0.102 0.471-1.241 0.638-1.451 0.096-0.12 0.078-0.214 0.114-0.235 0.597 0.681 0.394 1.584 0.367 1.69l-0.002 0.011c0.072 0.134 0.146 0.248 0.228 0.356l-0.005-0.007h0.081v-0.157c0.061-0.135 0.101-0.293 0.111-0.458l0-0.004 0.941-1.657c0.045-0.214 0.658-0.93 0.683-0.955l0.037-0.011 0.318-0.071c0.223-0.038 0.46-0.052 0.513 0.056-0.227 0.295-0.413 0.637-0.541 1.006l-0.008 0.025c-0.023 0.017-0.045 0.034-0.068 0.052 0.023-0.016 0.044-0.031 0.067-0.047-0.048 0.137-0.075 0.295-0.075 0.459 0 0.061 0.004 0.121 0.011 0.18l-0.001-0.007c0 0.029 0.003 0.057 0.003 0.123 0 0 0.018 0.028 0.048 0.067 0.011 0.025 0.017 0.050 0.029 0.073 0 0 0.236 0.326 0.415 0.364 0 0 0.138 0.119 0.524-0.089 0.609-0.41 1.061-1.011 1.275-1.716l0.006-0.022-0.016-0.034c-0.041-0.080-0.15-0.266-0.287-0.247l-0.146 0.095-0.055 0.098-0.002 0.006c-0.046 0.054-0.082 0.118-0.104 0.188l-0.001 0.004c-0.193 0.359-0.426 0.667-0.7 0.934l-0.001 0.001-0.008 0.003c-0.581 0.29-0.527 0-0.527 0 0.061-0.417 0.238-0.785 0.498-1.079l-0.002 0.002c0.336-0.217 0.73-0.435 1.138-0.626l0.063-0.026c0.019 0.036 0.057 0.061 0.1 0.061 0.001 0 0.002 0 0.003-0h-0c0.144 0 0.238-0.139 0.285-0.227 0.165-0.072 0.409-0.164 0.658-0.248l0.080-0.024c-0.013 0.038-0.025 0.077-0.040 0.113l-0.009 0.016s-1.002 1.405-0.726 2.081c0 0 0.113 0.221 0.374 0.013 0.064-0.041 0.117-0.093 0.157-0.154l0.001-0.002 0.014-0.017 0.041-0.055 0.049-0.063 0.857-0.912 0.021-0.008 0.007 0.020-0.361 0.982-0.014 0.042-0.009 0.037c0.018 0.11 0.113 0.194 0.227 0.194 0.010 0 0.021-0.001 0.031-0.002l-0.001 0c0.455 0 0.694-0.697 1.083-0.956l-0.301 0.762s-0.178 0.431 0.184 0.544c0.020 0.009 0.043 0.015 0.067 0.016h0l0.088-0.013 0.055-0.035 0.056-0.042c0.33-0.259 0.62-0.544 0.877-0.857l0.008-0.010c0.129 0.002 0.192 0.494 0.639 0.494h0.064c0.289 0 0.623-0.255 0.861-0.431 0.265-0.203 0.566-0.408 0.879-0.597l0.045-0.025c0.021 0.116 0.031 0.272 0.031 0.272-0.001 0.021-0.002 0.045-0.002 0.069 0 0.133 0.018 0.262 0.052 0.385l-0.002-0.010c0.060 0.143 0.199 0.241 0.361 0.241 0.009 0 0.018-0 0.027-0.001l-0.001 0c0.256-0.017 0.479-0.144 0.624-0.334l0.002-0.002c0.227-0.297 0.364-0.674 0.364-1.083 0-0.025-0.001-0.050-0.002-0.075l0 0.004c0.006-0.267-0.043-0.538-0.027-0.804 0.42 0.117 0.769 0.241 1.108 0.386l-0.057-0.022c0 0.717-0.001 2.003 0 2.338 0 0.004-0 0.009-0 0.014 0 0.331 0.029 0.656 0.084 0.972l-0.005-0.034h-5.716c-0.017-0-0.036-0-0.056-0-0.625 0-1.242 0.033-1.849 0.098l0.076-0.007c0.539 0.058 1.164 0.091 1.797 0.091 0.011 0 0.023 0 0.034-0h9.908c0.069 0 0.229-0.002 0.353-0.003 0.526 0.686 0.998 1.464 1.383 2.29l0.032 0.077v-0.205c-0.396-0.826-0.833-1.536-1.332-2.195l0.023 0.031h0.030s0.855-0.042 1.341-0.087c-0.529-0.049-1.494-0.090-1.494-0.090h-0.017c-0.264-0.317-0.526-0.602-0.799-0.875l-0-0c0.024-0.049 0.047-0.097 0.070-0.145 0.044-0.091 0.085-0.18 0.125-0.264 0.139-0.299 0.244-0.543 0.26-0.596 0.029-0.084 0.058-0.152 0.091-0.218l-0.005 0.012 0.004-0.006 0.020-0.043c0.038-0.077 0.082-0.157 0.128-0.238l0.862-1.239 0.015-0.019c0.005-0.009 0.015-0.024 0.027-0.045l0.304-0.437 0.147-0.235c0.011-0.017 0.023-0.032 0.036-0.046l0-0s0.013-0.035 0.028-0.078l0.006-0.014 0.002-0.019c0.007-0.025 0.011-0.055 0.011-0.085 0-0.006-0-0.011-0-0.017l0 0.001-0.007-0.025-0.006-0.041-0.021-0.065-0.042-0.029-0.060-0.022-0.043-0.004-0.031-0.006c-0.062 0-0.16 0.085-0.299 0.326l-0.819 1.198-0.002 0.012c-0.141 0.144-0.307 0.264-0.491 0.351l-0.010 0.004-0.098 0.034-0.146 0.043h-0.102l-0.032-0.021-0.019-0.062 0.641-1.485c0.057-0.104 0.111-0.226 0.154-0.352l0.005-0.016c0.006-0.018 0.010-0.039 0.011-0.060v-0c-0.009-0.025-0.024-0.047-0.043-0.064l-0-0c-0.012-0.018-0.030-0.030-0.052-0.033l-0-0-1.171 0.498-0.061-0.021-0.002-0.014c0.008-0.057 0.007-0.029-0.041-0.144-0.363 0.216-0.795 0.071-0.955 0.716h0.27v0.049c-0.032 0.106-0.076 0.199-0.133 0.283l0.002-0.004c-0.048 0.101-0.098 0.187-0.153 0.269l0.005-0.007c-0.131 0.204-0.296 0.374-0.489 0.506l-0.006 0.004c-0.178 0.101-0.184-0.060-0.184-0.206 0.050-0.221 0.11-0.411 0.185-0.594l-0.009 0.025c0.030-0.084 0.054-0.151 0.063-0.179 0.007-0.031 0.016-0.057 0.026-0.082l-0.001 0.004c0.232-0.766 0.435-0.931 0.915-1.277 0.4-0.288 0.746-0.615 1.044-0.982l0.008-0.010c0.479-0.563 1.029-1.381 0.265-1.488 0 0-0.881-0.371-1.965 2.047-0.022 0.027-0.039 0.058-0.050 0.093l-0.001 0.002c-0.010 0.030-0.020 0.061-0.034 0.092l-0.015 0.037-0.123 0.287c-0.11 0.257-0.294 0.464-0.524 0.601l-0.006 0.003c-0.053 0.028-0.098 0.057-0.14 0.090l0.002-0.002-0.042 0.031v0.023l-0.101 0.054-0.030 0.063v0.083l0.050 0.062 0.073 0.052h0.063l0.108-0.073c-0.135 0.3-0.252 0.653-0.333 1.019l-0.007 0.038c-0.208-0.103-0.422-0.203-0.644-0.293-0.027-0.012-0.054-0.025-0.081-0.037v-0.478s0.001-2.357 0-2.828c0-0.005 0-0.010 0-0.016 0-0.363-0.033-0.719-0.097-1.063l0.006 0.036c-0.059 0.311-0.093 0.669-0.093 1.034 0 0.003 0 0.006 0 0.010v-0c-0.002 0.471 0 2.828 0 2.828v0.397c-0.279-0.121-0.627-0.244-0.984-0.344l-0.062-0.015c0.022-0.289 0.096-0.556 0.214-0.799l-0.006 0.013c0.038-0.068 0.167-0.215 0.249-0.117 0.121 0.14 0.023 0.424 0.023 0.592 0 0.185 0.157 0.089 0.213 0.008 0.108-0.156 0.173-0.349 0.173-0.557 0-0.102-0.016-0.201-0.045-0.294l0.002 0.007c-0.007-0.028-0.014-0.051-0.023-0.074l0.001 0.004c-0.035-0.131-0.152-0.226-0.292-0.226-0.012 0-0.024 0.001-0.035 0.002l0.001-0c-0.475 0.088-0.814 0.586-0.979 1.009-0.032 0.079-0.063 0.175-0.088 0.275l-0.003 0.015c-0.194-0.044-0.463-0.092-0.735-0.129l-0.057-0.006c0.007-0.036 0.010-0.078 0.010-0.12 0-0.113-0.026-0.219-0.073-0.314l0.002 0.004-0.013-0.021c-0.012-0.018-0.023-0.034-0.036-0.049l0.001 0.001-0.051-0.011c-0.361 0.092-0.679 0.233-0.965 0.418l0.013-0.008c-0.168-0.008-0.367-0.013-0.566-0.014h-0.002c-0.059-0.001-0.128-0.002-0.198-0.002-0.883 0-1.739 0.119-2.551 0.343l0.067-0.016zM2.203 5.95c-0.037 0.069-0.071 0.134-0.103 0.202-0.101-0.050-0.417-0.155-0.534-0.234l0.024-0.019c0.105-0.019 0.359-0.066 0.68-0.11-0.024 0.055-0.047 0.107-0.067 0.161zM3.93 6.023c-0.27 0.479-0.787 1.406-0.893 1.692l-0.003 0.003c-0.080-0.93-0.496-1.102-0.496-1.258s0.316-0.663 0.361-0.74c0.041-0.003 0.081-0.007 0.122-0.011h0.696l0.016-0.016c0.132 0.004 0.258 0.017 0.381 0.038l-0.016-0.002c-0.069 0.084-0.125 0.181-0.165 0.287l-0.002 0.007zM19.261 1.782c0.154-0.154 0.319-0.296 0.495-0.425l0.012-0.008c0.334 0.505-1.128 1.728-1.493 2.022 0.237-0.615 0.571-1.143 0.989-1.591l-0.003 0.003zM20.493 8.44h-1.173c0.154-0.226 0.303-0.486 0.431-0.757l0.015-0.036c0.248 0.248 0.485 0.507 0.711 0.775l0.015 0.019zM18.193 5.832l0.028-0.047c0.048-0.069 0.098-0.147 0.158-0.243 0.042-0.066 0.086-0.14 0.134-0.219 0.102-0.167 0.2-0.334 0.296-0.503 0.078-0.19 0.197-0.349 0.348-0.471l0.002-0.002c0.176-0.118 0.386-0.2 0.612-0.231l0.008-0.001c-0.012 0.022-0.019 0.041-0.030 0.057-0.151 0.209-0.281 0.448-0.379 0.703l-0.007 0.021-0.011 0.028c-0.042 0.096-0.099 0.251-0.152 0.407l-0.017 0.059c-0.068 0.144-0.12 0.31-0.148 0.485l-0.001 0.011c-0.085 0.502 0.251 0.477 0.5 0.399 0.203-0.045 0.345-0.219 0.536-0.287h0.061c-0.102 0.236-0.205 0.472-0.309 0.707-0.090 0.206-0.177 0.412-0.266 0.618-0.457-0.433-0.956-0.833-1.485-1.191l-0.041-0.026c0.053-0.079 0.107-0.169 0.163-0.274zM16.248 5.252c0.282 0.115 0.499 0.216 0.711 0.325l-0.051-0.024c-0.077 0.452-0.051 0.896 0.293 1.035 0.041 0.022 0.090 0.035 0.142 0.036h0s0.266 0.067 0.636-0.449c0.575 0.387 1.078 0.792 1.544 1.235l-0.005-0.005c-0.059 0.137-0.118 0.273-0.181 0.409-0.025 0.056-0.046 0.115-0.074 0.172-0.030 0.051-0.051 0.11-0.057 0.174l-0 0.002c-0 0.007-0.001 0.016-0.001 0.025 0 0.053 0.008 0.104 0.022 0.152l-0.001-0.004 0.065 0.102h-3.168c0.049-0.279 0.077-0.6 0.077-0.928 0-0.009-0-0.018-0-0.027v0.001c0.001-0.322 0-1.528 0-2.257zM6.074 5.977c0.279-0.297 0.606-0.544 0.969-0.731l0.020-0.009c0.035 0.004 0.064 0.025 0.079 0.054l0 0.001c0.006 0.024 0.011 0.048 0.019 0.070-0.425 0.205-0.781 0.41-1.121 0.636l0.034-0.021zM7.92 5.039c0.151-0.11 0.282-0.232 0.396-0.369l0.003-0.003h0.034l0.013 0.033 0.004 0.065c-0.007 0.043-0.019 0.085-0.030 0.127-0.145 0.048-0.286 0.097-0.42 0.148zM14.358 4.639c-0.023 0.104-0.035 0.223-0.035 0.345 0 0.124 0.013 0.245 0.039 0.362l-0.002-0.011c0.046 0.153 0.072 0.329 0.072 0.512 0 0.184-0.027 0.363-0.077 0.531l0.003-0.013c-0.014 0.059-0.041 0.111-0.077 0.154l0-0.001c-0.258 0.246-0.39-0.284-0.394-0.444-0.002-0.077-0.006-0.143-0.004-0.213l0.007-0.055-0.003-0.082s-0.004 0.016 0.049-0.048v-0.046l-0.047 0.008c-0.379 0.066-0.714 0.216-0.997 0.431l0.006-0.004c-0.217 0.186-0.466 0.345-0.734 0.468l-0.020 0.008c-0.072 0.026-0.144 0.057-0.217 0.082-0.213 0.071-0.258-0.057-0.26-0.17 0.036-0.261 0.118-0.497 0.237-0.708l-0.005 0.010c0.057-0.111 0.18-0.436 0.292-0.23 0.311 0.582 0.844 0.073 1.044-0.324 0.1-0.137 0.189-0.292 0.26-0.458l0.006-0.015c0.025-0.055 0.047-0.12 0.063-0.188l0.001-0.007c0.002-0.010 0.003-0.019 0.005-0.028 0.261 0.036 0.524 0.080 0.789 0.136zM12.308 5.184l0.051-0.070c0.452-0.802 0.65-0.667 0.678-0.644 0.026 0.007 0.038 0.027 0.038 0.061 0 0.107-0.402 0.89-0.639 0.89-0.078-0.020-0.135-0.090-0.135-0.174 0-0.015 0.002-0.030 0.005-0.044l-0 0.001 0.004-0.008zM11.548 5.209c-0.033 0.047-0.066 0.101-0.095 0.157l-0.004 0.008c-0.33 0.441-0.328 0.985-0.383 1.116-0.258 0.256-0.552 0.476-0.875 0.65l-0.020 0.010-0.022 0.003c-0.107-0.109 0.12-0.601 0.371-1.061 0.145-0.245 0.289-0.467 0.417-0.713l0.091-0.148 0.027-0.061 0.006-0.019 0.005-0.015c0-0.002 0-0.003 0-0.005 0-0.152-0.12-0.276-0.27-0.282l-0.001-0c-0.122-0.009-0.258 0.192-0.258 0.192-0.193 0.288-0.363 0.524-0.541 0.754l0.023-0.030c-0.094 0.127-0.192 0.239-0.297 0.343l-0 0c-0.111 0.091-0.208 0.192-0.294 0.302l-0.003 0.004 0.008-0.018c0.578-1.266 0.448-1.402 0.447-1.402-0.028-0.118-0.132-0.205-0.257-0.205-0.012 0-0.024 0.001-0.036 0.002l0.001-0c-0.185 0.095-0.34 0.224-0.461 0.38l-0.002 0.003c-0.171 0.173-0.313 0.366-0.469 0.55-0.044 0.050-0.086 0.105-0.123 0.163l-0.003 0.005c-0.022 0.034-0.039 0.058-0.057 0.082l0.005-0.008-0.026 0.020-0.031-0.004v-0.018c0.115-0.33 0.261-0.654 0.39-0.979 0.023-0.057 0.048-0.115 0.072-0.172-0.004-0.004 0.117-0.038 0.239-0.071l0.124-0.029c0.74-0.206 1.591-0.325 2.469-0.325 0.067 0 0.133 0.001 0.2 0.002l-0.010-0c0.147 0 0.297 0.003 0.449 0.008-0.319 0.219-0.586 0.489-0.796 0.8l-0.007 0.011zM19.804 23.274s-0.628 0.6-0.987 0.908c0.38-0.307 0.72-0.595 1.034-0.897 0.787-0.764 1.448-1.652 1.952-2.634l0.026-0.057c0.070-0.114 0.145-0.254 0.213-0.398l0.012-0.029v-0.212c-0.104 0.24-0.204 0.438-0.316 0.629l0.015-0.027c-0.535 1.042-1.185 1.937-1.952 2.718l0.002-0.002zM11.238 25.624c0.033 0.001 0.072 0.001 0.111 0.001 1.361 0 2.614-0.467 3.605-1.25l-0.012 0.009h-7.406c0.979 0.773 2.231 1.24 3.592 1.24 0.039 0 0.078-0 0.117-0.001l-0.006 0zM3.302 23.452c8.285 0.409 15.991 0 15.991 0-6.136-0.47-15.991 0-15.991 0z"></path>
<path d="M3.603 20.74c-0.125 0.573-0.525 0.712-0.802 0.712v0.29h-0.507v0.673h17.991v-0.581h0.005v-0.369h-0.782v-0.036l0.001-3.334v-0.056c0.987-0.005 1.606-0.036 2.485-0.091-0.878-0.054-1.498-0.085-2.485-0.090v-0.061l0.003-8.598h0.779v-0.355h-3.383v0.355h0.792v8.658h-3.9l0.013-0.060 1.671-7.866c0.126-0.577 0.526-0.716 0.803-0.716v-0.364h-2.398v0.364c0.16 0 1.031 0 1.031 0.479l-0.002 0.018 0.002 0.019c0 0.172-1.652 7.683-1.652 7.683l-1.662-8.183h0.007l-0.007-0.033h0.793v-0.355h-3.501v0.355h0.735c-0.004-0.016 1.036 4.898 1.818 8.598l0.012 0.060h-2.423c-0.004-0.019-0.008-0.038-0.013-0.060-0.769-3.623-1.902-8.952-1.902-8.952h-0.973l-1.933 9.012c-1.023 0.005-1.65 0.035-2.547 0.091 0.886 0.055 1.508 0.087 2.509 0.091l-0.012 0.056zM6.715 21.417v0.326h-1.488l0.002-0.326c-0.161 0-1.033 0-1.033-0.48 0.055-0.441 0.133-0.83 0.235-1.208l-0.014 0.061 0.318-1.4h2.514l0.531 2.591c0.019 0.605-1.064 0.436-1.064 0.436zM16.781 18.041h0.92v3.424h-0.793l0.004 0.277h-3.936l0.773-3.647 0.012-0.055zM11.501 18.041c0.004 0.018 0.008 0.037 0.011 0.055 0.387 1.828 0.701 3.305 0.774 3.647h-1.85v-0.29s-0.647 0.075-0.715-0.377c0.005 0.007-0.265-1.26-0.629-2.98l-0.012-0.055zM4.88 17.797l1.11-5.097 1.169 5.097 0.009 0.042-2.298 0.003z"></path>
</svg>
