<!-- Generated by IcoMoon.io -->
<svg version="1.1" xmlns="http://www.w3.org/2000/svg" width="115" height="32" viewBox="0 0 115 32">
<title>brookfield_colour</title>
<path fill="#003057" d="M0 0.235h6.413c1.738 0 3.312 0.071 4.322 0.399 1.666 0.472 2.866 1.979 2.866 3.767 0 0.030-0 0.060-0.001 0.090l0-0.004c0.001 0.025 0.001 0.055 0.001 0.085 0 0.546-0.113 1.066-0.316 1.538l0.010-0.025c-0.752 1.691-2.35 2.020-3.242 2.208 1.010 0.164 2.35 0.376 3.267 1.409 0.57 0.647 0.917 1.502 0.917 2.437 0 0.019-0 0.037-0 0.056l0-0.003c-0.030 1.809-1.144 3.351-2.719 4.006l-0.029 0.011c-1.246 0.54-2.585 0.61-4.487 0.61h-7.001zM3.947 3.336v3.453h3.123c0.94-0.024 2.467-0.071 2.467-1.785 0-1.597-1.386-1.668-2.185-1.668zM3.947 9.796v4.017h2.889c1.386-0.024 3.195-0.071 3.195-1.973 0-1.997-1.644-2.020-2.49-2.044zM20.108 5.826c0.799-0.681 1.668-1.222 3.547-1.41v3.195l-1.198 0.188c-1.738 0.305-2.256 0.564-2.256 2.115v6.906h-3.616v-12.286h3.524zM37.773 10.665c0 3.101-1.785 6.507-6.577 6.507-3.454 0-6.602-1.974-6.602-6.507 0-3.759 2.373-6.742 7.071-6.484 5.004 0.282 6.108 4.252 6.108 6.484zM28.847 8.246c-0.385 0.645-0.613 1.423-0.613 2.254 0 0.050 0.001 0.1 0.002 0.15l-0-0.007c0 1.948 0.94 3.665 2.96 3.665 1.948 0 2.913-1.574 2.913-3.5 0-1.362-0.329-2.42-1.010-3.077-0.467-0.435-1.095-0.702-1.786-0.702-0.116 0-0.23 0.008-0.342 0.022l0.013-0.001c-1.034 0.071-1.643 0.423-2.138 1.198zM52.455 10.665c0 3.101-1.785 6.507-6.578 6.507-3.453 0-6.601-1.974-6.601-6.507 0-3.759 2.373-6.742 7.071-6.484 5.004 0.282 6.108 4.252 6.108 6.484zM43.528 8.246c-0.385 0.645-0.613 1.423-0.613 2.254 0 0.050 0.001 0.1 0.002 0.15l-0-0.007c0 1.948 0.94 3.665 2.96 3.665 1.95 0 2.913-1.574 2.913-3.5 0-1.362-0.329-2.42-1.010-3.077-0.467-0.435-1.095-0.702-1.786-0.702-0.116 0-0.23 0.008-0.342 0.022l0.013-0.001c-1.034 0.071-1.645 0.423-2.138 1.198zM54.78 0.235h3.547v8.528l3.97-4.205h4.346l-4.228 4.369 4.769 7.893h-4.182l-3.148-5.285-1.55 1.456v3.829h-3.524zM69.086 3.336c0-0.611 0.047-1.433 0.516-2.092 0.447-0.61 1.459-1.244 3.149-1.244 0.784 0.025 1.529 0.101 2.258 0.225l-0.097-0.014v2.701h-0.869c-1.363 0-1.433 0.282-1.409 1.926h2.419v2.209h-2.396v9.771h-3.595v-9.771h-1.928v-2.209h1.95zM76.861 0.211h3.571v2.795h-3.571zM76.861 4.534h3.571v12.286h-3.571zM95.138 13.696c-0.435 0.695-0.924 1.296-1.477 1.831l-0.003 0.003c-1.19 1.078-2.775 1.737-4.515 1.737-0.040 0-0.079-0-0.119-0.001l0.006 0c-3.641 0-6.201-2.326-6.201-6.343 0-2.96 1.456-6.765 6.296-6.765 0.728 0 2.842 0.070 4.416 1.762 1.597 1.715 1.691 4.111 1.738 5.497h-8.763c-0.023 1.527 0.846 3.054 2.796 3.054 1.973 0 2.654-1.292 3.101-2.161zM91.543 9.162c-0.070-0.516-0.164-1.198-0.681-1.739-0.454-0.422-1.064-0.681-1.734-0.681-0.010 0-0.019 0-0.029 0h0.001c-0.002 0-0.004 0-0.006 0-0.721 0-1.371 0.307-1.825 0.797l-0.001 0.002c-0.377 0.442-0.637 0.995-0.726 1.604l-0.002 0.017zM100.986 0.235v16.585h-3.618v-16.585zM115.222 0.235v16.585h-3.289v-1.15c-0.8 0.909-1.967 1.48-3.267 1.48-0.016 0-0.032-0-0.048-0l0.002 0c-1.344-0.004-2.562-0.541-3.454-1.411l0.001 0.001c-1.785-1.715-1.785-4.181-1.785-4.98 0-4.628 2.631-6.531 5.098-6.531 1.621 0 2.584 0.752 3.242 1.245v-5.238zM111.792 10.688c0-0.564 0-2.092-0.775-3.030-0.333-0.424-0.836-0.701-1.405-0.728l-0.004-0c-2.561 0-2.561 3.219-2.561 3.759 0 1.715 0.47 3.806 2.302 3.806 0.44-0.010 0.845-0.149 1.182-0.381l-0.007 0.005c1.269-0.868 1.269-2.748 1.269-3.43z"></path>
<path fill="#ea9d31" d="M37.941 20.371h3.629c1.516 0.016 2.532 0.016 3.532 0.822 0.772 0.641 1.26 1.6 1.26 2.674 0 0.047-0.001 0.094-0.003 0.14l0-0.007c0.002 0.040 0.003 0.087 0.003 0.135 0 1.411-0.937 2.603-2.223 2.988l-0.022 0.006 2.532 4.629h-2.436l-2.258-4.227h-1.903v4.226h-2.113zM40.054 22.21v3.564h0.742c0.726 0 1-0.016 1.404-0.032 0.468-0.016 2-0.097 2-1.758 0.001-0.022 0.002-0.047 0.002-0.072 0-0.636-0.364-1.187-0.895-1.456l-0.009-0.004c-0.452-0.226-1-0.242-2.258-0.242zM55.522 29.951c-1 1.339-2.29 2.049-3.935 2.049-2.113 0-4.145-1.339-4.145-4.307 0-2.71 1.742-4.241 4.016-4.241 2.129 0 3.016 1.274 3.177 1.516 0.661 0.935 0.806 2.339 0.822 3.145h-5.968c0.226 1.274 1.016 2 2.29 2 0.029 0.001 0.062 0.002 0.096 0.002 0.841 0 1.579-0.441 1.995-1.105l0.006-0.010zM53.329 26.693c-0.177-1.258-0.952-1.693-1.805-1.693-1.032 0-1.742 0.597-1.968 1.693zM57.749 29.37c0.52 0.634 1.304 1.035 2.181 1.035 0.050 0 0.099-0.001 0.148-0.004l-0.007 0c1.113 0 1.597-0.548 1.597-0.952 0-0.516-0.581-0.645-0.839-0.693-0.274-0.064-1.597-0.306-1.887-0.387-1.92-0.451-2.274-1.564-2.274-2.29 0-1.371 1.242-2.629 3.452-2.629 0.034-0.001 0.074-0.001 0.114-0.001 0.95 0 1.832 0.29 2.563 0.785l-0.016-0.010c0.317 0.203 0.588 0.444 0.818 0.72l0.005 0.006-1.371 1.274c-0.226-0.435-0.774-1.226-2.193-1.226-0.919 0-1.339 0.403-1.339 0.822 0 0.581 0.597 0.742 1.629 0.919 1.678 0.306 2.145 0.387 2.661 0.79 0.503 0.404 0.823 1.020 0.823 1.71v0c0 1.258-1.129 2.758-3.629 2.758-0.046 0.001-0.101 0.002-0.156 0.002-1.433 0-2.738-0.546-3.719-1.442l0.004 0.004zM67.007 20.484v1.952h-1.92v-1.952zM67.007 23.693v8.064h-1.92v-8.063zM76.153 20.371v11.387h-1.92v-0.774c-0.516 0.623-1.291 1.018-2.157 1.018-0.030 0-0.059-0-0.089-0.001l0.004 0c-1.92 0-3.582-1.436-3.582-4.097 0-2.403 1.355-4.452 3.661-4.452 0.034-0.002 0.075-0.002 0.115-0.002 0.81 0 1.539 0.349 2.045 0.904l0.002 0.002v-3.983zM73.783 25.984c-0.3-0.45-0.806-0.743-1.379-0.743-0.014 0-0.028 0-0.042 0.001l0.002-0c-1.306 0-1.935 1.177-1.935 2.452 0 0.145 0.016 2.564 1.903 2.564 1 0 1.903-0.742 1.887-2.484-0.018-0.516-0.082-1.258-0.436-1.79zM85.621 29.951c-1 1.339-2.29 2.049-3.936 2.049-2.113 0-4.145-1.339-4.145-4.307 0-2.71 1.742-4.241 4.016-4.241 2.129 0 3.016 1.274 3.177 1.516 0.662 0.935 0.807 2.339 0.823 3.145h-5.968c0.226 1.274 1.016 2 2.29 2 0.029 0.001 0.062 0.002 0.096 0.002 0.841 0 1.579-0.441 1.995-1.105l0.006-0.010zM83.427 26.693c-0.177-1.258-0.952-1.693-1.807-1.693-1.032 0-1.742 0.597-1.968 1.693zM86.831 23.694h1.952v0.951c0.168-0.252 0.378-0.462 0.621-0.625l0.008-0.005c0.521-0.352 1.163-0.563 1.855-0.564h0c0.020-0.001 0.044-0.001 0.068-0.001 0.822 0 1.557 0.375 2.041 0.964l0.004 0.005c0.5 0.677 0.5 1.547 0.5 2.597v4.742h-1.92v-4.111c0.006-0.094 0.009-0.204 0.009-0.315 0-0.322-0.027-0.637-0.078-0.944l0.005 0.033c-0.116-0.619-0.652-1.081-1.297-1.081-0.009 0-0.018 0-0.027 0l0.001-0c-0.641 0.006-1.196 0.366-1.48 0.894l-0.004 0.009c-0.306 0.597-0.306 1.419-0.306 2.016v3.5h-1.952zM97.976 25.080v3.645c0 1 0 1.436 0.919 1.436 0.025 0.001 0.055 0.001 0.085 0.001 0.257 0 0.505-0.036 0.741-0.103l-0.019 0.005v1.629c-0.421 0.081-0.907 0.128-1.403 0.13h-0.001c-0.403 0-1.758 0-2.129-0.984-0.129-0.322-0.129-0.839-0.129-1.645v-4.113h-1.177v-1.387h1.177v-2.855h1.936v2.855h1.726v1.387zM103.138 20.484v1.952h-1.92v-1.952zM103.138 23.693v8.064h-1.92v-8.063zM104.912 26.064c0.009-0.445 0.127-0.861 0.329-1.223l-0.007 0.013c0.774-1.404 2.693-1.404 3.209-1.404 0.774 0 1.71 0.097 2.419 0.516 0.952 0.581 0.968 1.338 0.968 2.209v4.274c0 0.613 0 0.823 0.355 1.307h-2.29c-0.016-0.194-0.048-0.516-0.048-0.63-0.642 0.513-1.465 0.823-2.361 0.823-0.009 0-0.018-0-0.028-0h0.001c-1.823 0-2.919-1.129-2.919-2.516 0-0.001 0-0.003 0-0.004 0-0.398 0.095-0.774 0.264-1.106l-0.006 0.014c0.581-1.161 1.822-1.419 2.597-1.564 0.97-0.162 1.812-0.369 2.629-0.633l-0.129 0.036c0-0.403-0.032-1.226-1.371-1.226-0.807 0-1.242 0.258-1.436 0.516-0.126 0.161-0.201 0.366-0.201 0.588 0 0.043 0.003 0.085 0.008 0.126l-0.001-0.005zM109.896 27.741c-0.493 0.236-1.065 0.407-1.666 0.481l-0.027 0.003c-0.693 0.097-1.613 0.258-1.613 1.113 0 0.629 0.532 0.952 1.306 0.952 0.984 0 1.678-0.452 1.887-0.936 0.074-0.18 0.117-0.389 0.117-0.608 0-0.042-0.002-0.083-0.005-0.124l0 0.005zM115.219 20.371v11.387h-1.951v-11.387z"></path>
</svg>
