<!-- Generated by IcoMoon.io -->
<svg version="1.1" xmlns="http://www.w3.org/2000/svg" width="28" height="32" viewBox="0 0 28 32">
<title>brookfield_b</title>
<path d="M0 0h12.349c3.347 0 6.378 0.136 8.323 0.769 3.208 0.909 5.519 3.811 5.519 7.253 0 0.058-0.001 0.116-0.002 0.173l0-0.009c0.001 0.048 0.002 0.105 0.002 0.162 0 1.052-0.217 2.054-0.609 2.963l0.019-0.049c-1.448 3.255-4.524 3.89-6.243 4.252 1.945 0.317 4.524 0.724 6.29 2.714 1.097 1.246 1.766 2.891 1.766 4.693 0 0.036-0 0.071-0.001 0.107l0-0.005c-0.059 3.483-2.203 6.452-5.236 7.714l-0.056 0.021c-2.397 1.040-4.976 1.176-8.639 1.176h-13.481zM7.599 5.971v6.649h6.014c1.81-0.045 4.75-0.136 4.75-3.438 0-3.076-2.669-3.212-4.207-3.212zM7.599 18.41v7.735h5.563c2.669-0.045 6.152-0.136 6.152-3.8 0-3.845-3.166-3.89-4.795-3.935z"></path>
</svg>
