<!-- Generated by IcoMoon.io -->
<svg version="1.1" xmlns="http://www.w3.org/2000/svg" width="88" height="32" viewBox="0 0 88 32">
<title>logo</title>
<path d="M13.474 24.341c0.23 0.076 0.383-0.076 0.613-0.076s0.383 0.301 0.613 0.301l0.076-0.076h0.23c0.076 0 0.301-0.301 0.383-0.383s0.23-0.23 0.306-0.23l0.076 0.076c0.076 0.076 0.23 0 0.383 0 0.076 0 0.076 0.076 0.23 0.076v0.076h0.076c0.076 0.076 0.076 0.23 0.23 0.301 0.076 0 0.23-0.076 0.301-0.076h0.076c0.076-0.076 0-0.23 0.076-0.301-0.010-0.086-0.037-0.164-0.078-0.233l0.002 0.003h-0.076l-0.076-0.23c-0.076-0.076-0.301-0.076-0.535-0.076v-0.383c0-0.076-0.076 0-0.076-0.076-0.015-0.086-0.041-0.163-0.078-0.234l0.002 0.004h-0.306c-0.048 0.058-0.077 0.132-0.077 0.214 0 0.006 0 0.012 0 0.017l-0-0.001h-0.076c-0.076 0.076-0.076 0.383-0.301 0.383h-0.076c0-0.23 0-0.301 0.076-0.383l0.076-0.076v-0.301c-0.301-0.301-0.383-0.23-0.842-0.301-0.076 0-0.383-0.23-0.536-0.23-0.076 0-0.301 0-0.301 0.076l-0.076 0.23h-0.076v0.076c-0.076 0.076-0.23 0-0.23 0.076v0.076c-0.23 0.23-0.23 0.076-0.301 0.535h-0.076v0.301l0.076 0.076v0.23c-0.23 0.153 0.301 0.535 0.301 0.535zM2.374 25.49h0.383c0.076 0.076 0.076 0.301 0.23 0.383 0.076 0.076 0.306 0 0.535 0.076 0.010 0.086 0.037 0.164 0.078 0.233l-0.002-0.003 0.23 0.076c0.076 0 0.23-0.23 0.306-0.23 0.072-0.049 0.162-0.079 0.258-0.079 0.017 0 0.034 0.001 0.050 0.003l-0.002-0 0.076-0.076c0.306 0 0.23 0.613 0.535 0.613l0.076-0.076c0.014 0.002 0.031 0.003 0.048 0.003 0.096 0 0.186-0.029 0.26-0.080l-0.002 0.001c0.076-0.076 0-0.23 0.076-0.301 0.001 0 0.001 0 0.002 0 0.041 0 0.074-0.033 0.074-0.074 0-0.001 0-0.001-0-0.002v0-0.301h0.076v-0.23h0.076v-0.301c0.014-0.206 0.177-0.369 0.382-0.383l0.001-0c0.23-0.076 0.301 0 0.613-0.076 0.125-0.043 0.229-0.124 0.3-0.228l0.001-0.002 0.076-0.076c0.092-0.018 0.198-0.029 0.306-0.029s0.214 0.010 0.317 0.030l-0.010-0.002c0.076 0 0.076-0.076 0.076-0.23 0.076-0.076 0.23-0.076 0.306-0.23v-0.163c0.001 0 0.001 0 0.002 0 0.041 0 0.074-0.033 0.074-0.074 0-0.001 0-0.001-0-0.002v0c0.019-0.092 0.030-0.198 0.030-0.306s-0.011-0.214-0.031-0.317l0.002 0.010c-0.115-0.019-0.216-0.045-0.314-0.080l0.012 0.004v0.076c-0.076 0-0.301 0.076-0.301 0-0.306 0-0.306-0.076-0.306-0.23-0.076-0.076-0.301-0.23-0.383-0.301-0.23 0-0.383 0.23-0.613 0.23-0.124-0.008-0.222-0.106-0.23-0.229l-0-0.001c-0.080-0.018-0.173-0.029-0.268-0.029s-0.187 0.011-0.276 0.031l0.008-0.002c-0.076 0-0.076 0.301-0.076 0.383h-0.235v-0.383h0.076c0.003-0.057 0.004-0.123 0.004-0.19 0-0.285-0.029-0.563-0.085-0.831l0.005 0.026c-0.126 0.018-0.272 0.029-0.421 0.029s-0.295-0.010-0.437-0.031l0.016 0.002c-0.301 0-0.23 0.23-0.383 0.301-0.076 0.076-0.23 0-0.306 0s-0.23 0.23-0.306 0.301-0.383 0-0.535 0.076v0.076s-0.23 0.23-0.23 0.301c-0.076 0.076-0.23 0-0.301 0.076-0.076 0-0.076 0.23-0.076 0.23h0.153v0.23c0 0.076-0.076 0-0.076 0.076v0.23l-0.076 0.076v0.383c0 0.076-0.076 0.076-0.076 0.23v0.383c0 0.383 0.153 0.383 0.23 0.995zM18.603 19.136c-0.076 0-0.076 0.23-0.23 0.23l-0.076-0.076h-0.076l-0.076-0.23h-0.076v-0.301c-0.001 0-0.001 0-0.002 0-0.041 0-0.074-0.033-0.074-0.074 0-0.001 0-0.001 0-0.002v0c-0.23 0-0.301-0.076-0.535 0-0.076 0-0.23 0.23-0.301 0.23s-0.306 0-0.383-0.076l-0.076-0.076h-0.383l-0.076 0.076c-0.23 0-0.23-0.076-0.301-0.076-0.23-0.076-0.383 0.076-0.613 0-0.076 0-0.301-0.383-0.301-0.383h-0.766c-0.076 0-0.076-0.23-0.23-0.23h-0.076c-0.23 0-0.383-0.301-0.689-0.23-0.076 0-0.076 0.076-0.076 0.23h-0.076c0 0.001 0 0.001 0 0.002 0 0.041-0.033 0.074-0.074 0.074-0.001 0-0.001 0-0.002-0h0c-0.076 0.076-0.301 0.076-0.383 0.23-0.010 0.086-0.037 0.164-0.078 0.233l0.002-0.003h-0.076l-0.076 0.23c0 0.001 0 0.001 0 0.002 0 0.041-0.033 0.074-0.074 0.074-0.001 0-0.001 0-0.002-0h0v0.383c0 0.076 0.23 0.23 0.23 0.301v0.383s-0.301 0.535-0.076 0.613c0 0-0.076 0.076 0 0.23-0.23 0.23-0.301 0.076-0.23 0.535h0.076c0.076 0 0.23 0.076 0.306 0l0.076-0.23h0.301c0 0.076 0.076 0.23 0.076 0.301 0.042 0.002 0.090 0.003 0.139 0.003 0.249 0 0.492-0.029 0.724-0.084l-0.021 0.004c0.076 0 0.23-0.23 0.23-0.301 0.076-0.076 0.23 0 0.301 0h-0.464l-0.076 0.076h-0.076c0 0.001 0 0.001 0 0.002 0 0.041-0.033 0.074-0.074 0.074-0.001 0-0.001 0-0.002-0h0c-0.076 0.23 0.076 0.535 0.076 0.613 0.044 0.005 0.096 0.008 0.147 0.008 0.167 0 0.327-0.031 0.474-0.088l-0.009 0.003c0.048-0.058 0.077-0.132 0.077-0.214 0-0.006-0-0.012-0-0.017l0 0.001h0.076l0.076-0.23h0.074l0.076-0.23c0-0.076 0.23-0.076 0.301-0.076 0.301 0 0.383 0.23 0.613 0.301 0.383 0.076 0.536-0.383 0.918-0.301 0.076 0 0.076 0.23 0.23 0.23 0.076 0.076 0.23 0 0.301 0l0.076 0.23c0.076 0 0.076-0.076 0.23-0.23h0.076c0.076 0 0.076-0.076 0.076-0.23l0.306-0.076c0.076 0 0.23 0.076 0.301 0.076h0.689c0.076 0 0.383-0.076 0.383-0.23l0.076-0.23h0.306l0.076 0.23c0.074 0.020 0.158 0.032 0.246 0.032 0.162 0 0.315-0.040 0.449-0.111l-0.005 0.003 0.076-0.23h-0.383c0-0.076 0.076-0.23 0.076-0.301 0-0.23 0-0.301-0.076-0.383v-0.076h-0.23c0-0.076-0.076-0.306-0.076-0.383h-0.076v-0.076c-0.383-0.076-0.535 0.23-0.613 0.535-0.076 0-0.301-0.076-0.383-0.076v-0.23c0.076 0 0.076-0.076 0.23-0.076 0-0.301 0.076-0.301-0.076-0.383v-0.076c-0.23-0.076-0.301 0.076-0.301 0.23 0-0.076 0-0.076-0.076-0.076zM2.145 20.59l0.23-0.23v-0.076s0.306-0.301 0.383-0.301c0.23 0 0.23 0.301 0.23 0.535l0.076 0.076v0.301c0 0.076 0.076 0 0.076 0.076v0.076h0.23c0.23-0.076 0.383 0.076 0.613 0 0.23 0 0.535-0.301 0.689-0.301h0.306c0.076 0 0.23-0.383 0.301-0.383 0.301-0.076 0.301 0.301 0.383 0.301h0.459c0.010-0.086 0.037-0.164 0.078-0.233l-0.002 0.003c0-0.23 0.076-0.306 0.306-0.306l0.076-0.076c0.23 0 0.23 0.076 0.301 0.23v0.076c0.076 0.076 0.076 0 0.23 0.076l0.076 0.23h0.383c0.076 0 0.076-0.23 0.076-0.23 0.076-0.306 0.301-0.306 0.383-0.383 0-0.076 0-0.23 0.076-0.23h0.086c0.010-0.086 0.037-0.164 0.078-0.233l-0.002 0.003 0.074-0.078v-0.301c0-0.076 0.076 0 0.076-0.076v-0.076l0.076-0.076c0.051-0.204 0.081-0.437 0.081-0.678 0-0.058-0.002-0.115-0.005-0.172l0 0.008c-0.23-0.301-0.23-0.383-0.613-0.301-0.23-0.301-0.23-0.301-0.535-0.383-0.076 0.23-0.301 0.613-0.613 0.535l-0.075-0.238c-0.092-0.018-0.198-0.029-0.306-0.029s-0.214 0.010-0.317 0.030l0.010-0.002c-0.076 0-0.076-0.076-0.306-0.076-0.076 0.076-0.23 0.306-0.301 0.383-0.23 0.23-0.383 0-0.689 0.23-0.076 0-0.23 0.23-0.301 0.301-0.001 0-0.001 0-0.002 0-0.041 0-0.074-0.033-0.074-0.074 0-0.001 0-0.001 0-0.002v0c-0.076-0.076-0.23 0-0.301 0-0.23 0-0.23-0.301-0.535-0.23l-0.23 0.23v0.23l-0.383 0.076-0.076-0.23c-0.086 0.015-0.163 0.041-0.234 0.078l0.004-0.002-0.076-0.076h-0.244v-0.076c-0.076 0-0.23 0.076-0.306 0.076s-0.23-0.301-0.301-0.383h-0.388l-0.076 0.076c-0.076 0-0.301-0.383-0.535-0.301-0.076 0-0.306 0.301-0.383 0.383s-0.23 0.076-0.301 0.23c-0.019 0.092-0.030 0.198-0.030 0.306s0.011 0.214 0.031 0.317l-0.002-0.010c0 0.001 0 0.001 0 0.002 0 0.041-0.033 0.074-0.074 0.074-0.001 0-0.001 0-0.002-0h0v0.227l0.076 0.076c0.23 0.076 0.383-0.076 0.535 0.076v0.301c0.076 0.23 0.383 0.23 0.613 0.23 0.031 0.085 0.058 0.187 0.075 0.291l0.001 0.010-0.076 0.076v0.383l0.076 0.076h0.076c0.536-0.459 0.689-0.459 0.766-0.459zM3.063 14.696c0.001-0 0.001-0 0.002-0 0.041 0 0.074 0.033 0.074 0.074 0 0.001 0 0.001-0 0.002v-0 0.383l0.153 0.153v0.23c0.076-0.076-0.076 0.23-0.076 0.23v0.229c0 0.076 0 0 0.076 0.076 0 0 0 0.23 0.076 0.23 0.076 0.23 0.301 0.076 0.535 0.076v0.076h0.076v0.23c0 0.076 0.076 0.076 0.076 0.23h0.23c0.153 0 0.23-0.23 0.306-0.23-0 0.001-0 0.001-0 0.002 0 0.041 0.033 0.074 0.074 0.074 0.001 0 0.001 0 0.002-0h0.383l0.076-0.076c0.072-0.049 0.162-0.078 0.258-0.078 0.015 0 0.031 0.001 0.046 0.002l-0.002-0v-0.076l0.076 0.076c0.076 0 0.535 0.076 0.613 0 0.048-0.058 0.077-0.132 0.077-0.214 0-0.006-0-0.012-0-0.017l0 0.001c0.23-0.301 0.23-0.153 0.306-0.301s0.076-0.306 0.23-0.306c0.23-0.076 0.23 0.076 0.301 0.23h0.535c0.23-0.076 0.23-0.306 0.301-0.383s0.23 0 0.23-0.076 0-0.23 0.076-0.23h0.076v-0.076h0.301v-0.076c0.076-0.076 0.076-0.076 0.23-0.076v-0.842c0-0.076 0.076-0.23 0.076-0.301 0-0.383-0.306-0.306-0.536-0.306 0.001-0.013 0.002-0.028 0.002-0.044 0-0.096-0.029-0.185-0.079-0.259l0.001 0.002c0-0.076-0.535-0.076-0.613-0.076v0.076c-0.076 0-0.23 0.23-0.306 0.23s-0.23-0.23-0.301-0.23c-0.001-0-0.001-0-0.002-0-0.041 0-0.074 0.033-0.074 0.074 0 0.001 0 0.001 0 0.002v-0h-0.301c-0.076 0-0.23 0.301-0.301 0.301v0.076c-0.076 0.076-0.535 0-0.613 0l-0.076-0.076h-0.301v-0.076l-0.301-0.301c-0.23-0.076-0.383 0-0.689 0 0.076-0.076-0.076-0.23-0.23-0.23 0 0-0.076 0.076-0.076 0-0.076 0-0.076-0.076-0.23-0.076v-0.076h-0.309c-0.076 0-0.306-0.23-0.535-0.23l-0.535 0.383c0.001 0.013 0.002 0.028 0.002 0.044 0 0.096-0.029 0.185-0.079 0.259l0.001-0.002h0.076c-0.076 0-0.076 0.23-0.076 0.301h-0.078v0.301c0.103 0.029 0.233 0.055 0.365 0.074l0.018 0.002c0 0.613 0 0.536 0.383 0.613zM17.072 13.854c0-0.001 0-0.001 0-0.002 0-0.041-0.033-0.074-0.074-0.074-0.001 0-0.001 0-0.002 0h0c-0.092-0.018-0.198-0.029-0.306-0.029s-0.214 0.010-0.317 0.030l0.010-0.002v-0.301c-0.085-0.031-0.187-0.058-0.291-0.075l-0.010-0.001c-0.23-0.23-0.076-0.613-0.536-0.689-0.24 0.039-0.449 0.147-0.613 0.302l0.001-0.001c0 0.076 0 0.23-0.076 0.23l-0.306 0.076c-0.316-0.039-0.575-0.247-0.687-0.53l-0.002-0.006c-0.189-0.195-0.305-0.462-0.305-0.755 0-0.030 0.001-0.061 0.004-0.091l-0 0.004c0-0.23 0.23-0.23 0.301-0.301v-0.076c0.23 0 0.23 0.23 0.23 0.301l0.383 0.23c0.23 0 0.383-0.23 0.536-0.301-0.001-0.013-0.002-0.028-0.002-0.044 0-0.096 0.029-0.185 0.079-0.259l-0.001 0.002h0.076c0.076-0.076 0.23-0.383 0.306-0.383s0.076 0.076 0.301 0c0.076-0.076 0.076-0.301 0.23-0.383s0.23 0 0.301-0.076c0.076 0 0.076-0.23 0.23-0.23 0-0.076 0-0.23-0.076-0.23-0.23-0.23-0.536 0-0.689 0.076-0.072 0.049-0.162 0.078-0.258 0.078-0.015 0-0.031-0.001-0.046-0.002l0.002 0c-0.076 0-0.23 0.23-0.301 0.23h-0.076l-0.23 0.23c-0.076 0.076-0.076 0-0.23 0v0.070c-0.072 0.049-0.162 0.078-0.258 0.078-0.015 0-0.031-0.001-0.046-0.002l0.002 0h-0.076c-0.23 0 0-0.076 0.076-0.23-0.001-0.013-0.002-0.028-0.002-0.044 0-0.096 0.029-0.185 0.079-0.259l-0.001 0.002c0.076-0.23 0.301-0.306 0.536-0.383v-0.239l-0.076-0.076c-0.076 0-0.301-0.076-0.383 0-0.23 0.076-0.383 0.301-0.613 0.383h-0.396s-0.076-0.23-0.23-0.23c0 0.001 0 0.001 0 0.002 0 0.041-0.033 0.074-0.074 0.074-0.001 0-0.001 0-0.002-0h-0.23v0.076c-0.076 0.076-0.23 0.076-0.23 0.23v0.076c-0.076 0.076-0.23 0-0.23 0.076 0 0 0 0.23-0.076 0.306l-0.23 0.23c-0.072 0.049-0.162 0.078-0.258 0.078-0.015 0-0.031-0.001-0.046-0.002l0.002 0v0.23c0.23 0.076 0.23 0.23 0.536 0.23 0 0.076 0 0.301 0.076 0.383 0 0.076 0.23 0.306 0.076 0.613-0.076 0-0.076 0.23-0.076 0.301-0.153 0.23-0.23 0.23-0.23 0.23v0.23c0 0.153-0.076 0.076-0.23 0.23 0 0.536 0.23 0.918-0.23 1.072v0.301c0.049 0.071 0.079 0.159 0.079 0.254 0 0.017-0.001 0.033-0.003 0.050l0-0.002-0.076 0.076v0.301c0.23 0.076 0.383 0.306 0.613 0.383-0.076 0.301-0.076 0.301 0.076 0.383l0.076 0.076c0.015 0.002 0.033 0.004 0.051 0.004 0.152 0 0.282-0.096 0.331-0.231l0.001-0.002h0.153s0.076 0.301 0.23 0.301h0.383c0.086 0.015 0.164 0.041 0.234 0.078l-0.004-0.002h0.536c0.076 0 0.383 0.301 0.613 0.301 0 0 0.23-0.301 0.306-0.301 0.383-0.076 0.689 0.076 0.995-0.23 0.076-0.076 0.076-0.301 0.23-0.301 0.076-0.076 0.301-0.076 0.535-0.23l0.076-0.076h0.306v0.076c0.092 0.019 0.198 0.030 0.306 0.030s0.214-0.011 0.317-0.031l-0.010 0.002v-0.053c0.076-0.076 0.301 0 0.301-0.23v-0.23h0.076c0.076-0.076 0-0.23 0.076-0.383l-0.23-0.23h-0.23l-0.076-0.23c-0.076-0.076-0.076 0-0.23-0.076 0-0.001 0-0.001 0-0.002 0-0.041-0.033-0.074-0.074-0.074-0.001 0-0.001 0-0.002 0h0c-0.23-0.076-0.301 0-0.535 0v-0.076c-0.076-0.301-0.076-0.153-0.153-0.301zM5.13 10.64v0 0.536h-0.076l0.076 0.076 0.23 0.076v0.23l0.076 0.076v0.383h0.076l0.076 0.076h0.383s0.076-0.23 0.23-0.23 0.076 0.076 0.076 0.076c0.030 0.002 0.065 0.003 0.1 0.003 0.183 0 0.359-0.029 0.524-0.083l-0.012 0.003c0.049-0.072 0.079-0.16 0.079-0.256 0-0.016-0.001-0.032-0.002-0.047l0 0.002c0.001 0 0.001 0 0.002 0 0.041 0 0.074-0.033 0.074-0.074 0-0.001 0-0.001-0-0.002v0-0.23c0-0.153 0.076-0.076 0.23-0.076v-0.235h0.076l0.076-0.23h0.076c0.076 0 0.076-0.076 0.23-0.23h0.076l0.076-0.23 0.23 0.076c0.076-0.076 0.076-0.301 0.23-0.383-0-0.001-0-0.003-0-0.004 0-0.041 0.033-0.074 0.074-0.074 0.001 0 0.002 0 0.002 0h-0c-0.001-0.013-0.002-0.028-0.002-0.044 0-0.096 0.029-0.185 0.079-0.259l-0.001 0.002h0.23v-0.301c0.076-0.383 0.076-0.842-0.301-0.689 0.076 0 0 0.076-0.076 0.076-0.092-0.018-0.198-0.029-0.306-0.029s-0.214 0.010-0.317 0.030l0.010-0.002v0.23h-0.081c-0.076 0-0.23 0.23-0.23 0.23h-0.23c-0.030-0.002-0.065-0.003-0.101-0.003-0.183 0-0.359 0.029-0.524 0.083l0.012-0.003s-0.301-0.076-0.383 0c-0.076 0-0.076 0.306-0.301 0.306s-0.301-0.076-0.383 0c-0.076 0-0.383 0.076-0.383 0.301v0.23c-0.001-0-0.001-0-0.002-0-0.041 0-0.074 0.033-0.074 0.074 0 0.001 0 0.001 0 0.002v-0c0 0.076-0.153 0.459-0.153 0.536 0.076 0 0.076 0.076 0.23 0.23-0.153-0.23-0.153-0.23 0-0.23zM14.162 6.659c0 0.010 0.001 0.021 0.001 0.033 0 0.127-0.028 0.247-0.079 0.355l0.002-0.005c0 0.076-0.076 0.076-0.076 0.23v0.301c0 0.076-0.076 0.383-0.076 0.535h-0.076c-0.004 0.056-0.007 0.121-0.007 0.187 0 0.233 0.030 0.458 0.087 0.673l-0.004-0.018h0.23l0.076 0.076c0.383 0.076 0.689-0.301 0.995-0.383h0.23l0.076-0.23h0.076l0.076-0.23h0.23c0.011-0.084 0.038-0.16 0.078-0.227l-0.002 0.003c0.076-0.076 0.076 0 0.23-0.076 0.076 0 0.076-0.23 0.23-0.301h0.076c0.010-0.086 0.037-0.164 0.078-0.233l-0.002 0.003c0.076-0.154 0.076 0 0.23-0.076v-0.236h0.076c0.048-0.058 0.077-0.132 0.077-0.214 0-0.006-0-0.012-0-0.017l0 0.001h0.076c0.076 0 0.23-0.23 0.301-0.306 0.018-0.126 0.029-0.272 0.029-0.421s-0.010-0.295-0.031-0.437l0.002 0.016h-0.301v0.076c-0.010 0.086-0.037 0.164-0.078 0.233l0.002-0.003h-0.076c0-0.535 0-0.995-0.383-0.842-0.076 0-0.076 0.23-0.23 0.301-0.076 0.076-0.23 0-0.301 0.076-0.086 0.010-0.164 0.037-0.233 0.078l0.003-0.002c0 0.001 0 0.001 0 0.002 0 0.041-0.033 0.074-0.074 0.074-0.001 0-0.001 0-0.002-0h-0.076l-0.076 0.076c-0.076 0-0.076-0.076-0.23 0-0.048 0.058-0.077 0.132-0.077 0.214 0 0.006 0 0.012 0 0.017l-0-0.001c-0.076 0.076-0.076 0-0.23 0.076-0.048 0.058-0.077 0.132-0.077 0.214 0 0.006 0 0.012 0 0.017l-0-0.001h-0.076l-0.076 0.23c-0.178 0.073-0.386 0.126-0.602 0.152l-0.011 0.001zM8.192 6.2h0.23v0.076c0.23 0.076 0.301 0.076 0.383 0.301 0.076 0.076 0 0.23 0.076 0.23 0.076 0.076 0.23 0 0.301 0.076 0.076 0.23 0.076 0.301 0.23 0.383l-0.076 0.076c0 0.076 0.076 0.076 0 0.076h0.23v-0.225h0.235v-0.076h0.306s0-0.23 0.076-0.23c0.076-0.076 0.383 0 0.536-0.076l0.23-0.076 0.076-0.076c0.076-0.076 0.301 0 0.383-0.076v-0.076c0.076-0.076 0.23-0.076 0.23-0.23v-0.301h0.076v-0.301c0-0.076 0.076-0.076 0.076-0.23v-0.316c-0.019-0.207-0.046-0.39-0.082-0.569l0.006 0.034c0-0.076-0.076-0.306-0.076-0.383h-0.079l-0.076-0.076c-0.076-0.076-0.306 0-0.383 0-0.076 0.076 0 0.301-0.076 0.301 0 0.076-0.383 0.076-0.613 0.076l-0.073-0.066c-0.23-0.076-0.301 0.076-0.383 0-0.076 0 0-0.076-0.076-0.23h-0.383c-0.076-0.23-0.076-0.383-0.306-0.383l-0.076 0.076c-0.23 0.076-0.301-0.076-0.536 0-0.076 0-0.076 0.23-0.23 0.306h-0.076v0.23c-0.076 0.076-0.23 0-0.23 0.076-0.076 0.076 0 0.535 0 0.689l-0.076 0.076c-0.002 0.030-0.003 0.065-0.003 0.101 0 0.183 0.029 0.359 0.083 0.524l-0.003-0.012 0.153 0.306zM13.015 1.989c0.033 0.151 0.060 0.334 0.075 0.52l0.001 0.015 0.076 0.076c0.076 0 0.076-0.076 0.23 0 0.076 0 0.076 0.076 0.23 0.076v-0.076h0.23c0.113-0.236 0.216-0.516 0.293-0.807l0.008-0.035v-0.076l0.076-0.076v-0.536l0.076-0.076c0.050-0.258 0.078-0.554 0.078-0.857 0-0.049-0.001-0.097-0.002-0.145l0 0.007h-0.301c-0.013-0.001-0.028-0.002-0.044-0.002-0.096 0-0.185 0.029-0.259 0.079l0.002-0.001v0.076c-0.076 0.076-0.23 0-0.301 0l-0.076 0.076h-0.076c-0.076 0.076 0 0.23-0.076 0.306-0.004-0.001-0.008-0.001-0.013-0.001-0.041 0-0.074 0.033-0.074 0.074 0 0.001 0 0.002 0 0.003v-0c-0.076 0.076 0 0.23-0.076 0.383h-0.076c-0.037 0.126-0.057 0.271-0.057 0.421s0.021 0.295 0.060 0.432l-0.003-0.011c-0.153 0.153 0 0.076 0 0.153zM82.438 25.183c0.436 0.091 0.985 0.172 1.542 0.225l0.065 0.005c0.004-0.383-1.068-0.23-1.603-0.23zM82.898 24.882l-0.613-0.076c0.387-0.081 0.31 0.071 0.617 0.071zM82.597 24.958h-0.459l0.306 0.076zM52.973 25.495l0.076 0.076c0.075-0.081-0.077-0.081-0.077-0.081zM69.583 25.035l-0.613-0.23c0.229 0.225 0.229 0.378 0.612 0.225zM43.327 23.954c0.063 0.048 0.142 0.076 0.228 0.076 0.001 0 0.001 0 0.002 0h-0c-0.067-0.034-0.144-0.059-0.226-0.071l-0.004-0zM51.364 25.025v0z"></path>
<path d="M68.894 24.877l0.23 0.076c-0.066-0.039-0.144-0.066-0.227-0.076l-0.003-0zM80.834 25.178c-0.076 0-0.23-0.076-0.306-0.076 0 0.081 0.154 0.081 0.306 0.081zM20.592 27.326v0c-0.076 0-0.076 0.153 0 0z"></path>
<path d="M81.447 24.953c-1.225-0.076-1.225-0.383-2.22-0.301l0.23 0.076c-0.678-0.038-1.308-0.12-1.924-0.245l0.086 0.014c0.23 0 0.23-0.076 0.076-0.076-1.225 0.076-2.449-0.076-3.828 0l-0.383-0.301v0.076c-0.689 0-0.076-0.23-0.613-0.23 0.23 0 0.076 0 0.23 0.076-0.842-0.23-0.383 0.076-0.918 0.076 0.23 0.23 0.842 0.076 0.613 0.301-0.842-0.23-1.99-0.076-2.143-0.535-0.247 0.008-0.538 0.012-0.83 0.012-1.301 0-2.582-0.088-3.837-0.259l0.146 0.016c-0.23 0.076 0.076 0 0 0.076-0.535-0.23-1.608 0.076-1.608 0-0.23 0-0.301 0.23-0.383 0.23-0.261-0.051-0.562-0.081-0.869-0.081-0.071 0-0.142 0.002-0.213 0.005l0.010-0h0.301l-0.373-0.081c-0.163 0.008-0.353 0.012-0.545 0.012-0.864 0-1.706-0.088-2.52-0.256l0.080 0.014c0.535 0.076 0 0.23 0.076 0.301-0.528-0.171-1.135-0.27-1.766-0.27-0.241 0-0.478 0.014-0.712 0.042l0.028-0.003c0 0.076-0.076 0.076 0 0.23l-0.535-0.076 0.076 0.076c-0.918 0.076-1.914-0.23-2.526-0.076 0.383 0 0.383 0.076 0.383 0.23h-1.986c0.001-0 0.001-0 0.002-0 0.041 0 0.074 0.033 0.074 0.074 0 0.001 0 0.001-0 0.002v-0c-0.030 0.002-0.065 0.003-0.101 0.003-0.183 0-0.359-0.029-0.524-0.083l0.012 0.003v0.076c-0.383-0.076-0.918 0-1.377-0.076-0.23 0.23-1.072-0.076-1.684 0-0.23 0 0.535 0.076-0.076 0.23-0.076-0.306-0.689 0-0.842-0.306l-0.539 0.082-0.076-0.23c-0.383 0.301-0.689-0.076-1.306 0 0.001-0 0.001-0 0.002-0 0.041 0 0.074 0.033 0.074 0.074 0 0.001 0 0.001-0 0.002v-0c-0.23 0-0.689 0-0.301-0.076-0.301 0-1.531 0-0.995 0.076 0-0.076 0.383 0 0.613 0 0 0.076-0.535 0.076-0.613 0.301-0.001 0-0.001 0-0.002 0-0.041 0-0.074-0.033-0.074-0.074 0-0.001 0-0.001 0-0.002v0l-0.076 0.076c-0.014 0-0.030 0-0.046 0-0.637 0-1.254-0.084-1.841-0.242l0.050 0.011s-0.076 0.076-0.383 0.076v-0.23h-0.689l0.301 0.23c-0.707-0.039-1.364-0.121-2.006-0.245l0.092 0.015c-0.076 0.306-1.225 0-1.684 0.23l0.535 0.076c-0.43 0.064-0.927 0.101-1.432 0.101-0.25 0-0.498-0.009-0.744-0.027l0.033 0.002c0.727-0.048 1.405-0.184 2.047-0.399l-0.057 0.017c-1.225 0.23-1.99 0-3.139 0.23 0.076 0.076 0.301 0.076 0.076 0.23-0.23-0.076-0.995 0.076-0.918-0.076-0.301 0.076-0.383 0.301-0.613 0.301l-1.063-0.067c-1.914 0.535-3.598 0-5.512 0.301v0.076l-0.383 0.076c0.23 0.076-0.23 0.076-0.23 0.23l-1.072-0.076c0 0.076 0.076 0.306 0.383 0.23-0.206 0.018-0.446 0.029-0.689 0.029s-0.482-0.010-0.72-0.031l0.031 0.002 0.076 0.076h-0.383v0.076c-0.689 0-1.531 0.23-1.838 0l0.076 0.23-0.689-0.076 0.383 0.076c-0.842 0.076-1.99 0.076-2.22 0.076l0.076 0.076h-0.383l0.076 0.076c-1.225 0.076-1.531 0.383-2.909 0.383-0.383 0.076 0.23 0 0.23 0.076-0.126 0.037-0.271 0.058-0.421 0.058s-0.295-0.021-0.432-0.060l0.011 0.003c0.076 0.23 0.689 0 0.301 0.23-0.301 0 0.23 0.076-0.301 0.23l-0.23-0.23c-0.301 0.076 0 0.23-0.535 0.23-0.613 0 0.613-0.301-0.23-0.23-0.076 0-0.23 0.076-0.301 0.076-0.23-0.076-0.689 0.301-0.918 0.301-0.076 0-0.23-0.23-0.306-0.23s-0.536 0.076-0.536 0.076l-0.076 0.23h-0.383l-0.076-0.076c-0.301-0.076-0.383 0.076-0.689 0l-0.076-0.076c-0.092-0.018-0.198-0.029-0.306-0.029s-0.214 0.010-0.317 0.030l0.010-0.002c-0.076 0-0.383-0.23-0.613-0.23-0.076 0-0.076 0.076-0.23 0.23-0.153 0.050-0.329 0.079-0.512 0.079-0.035 0-0.071-0.001-0.106-0.003l0.005 0v-0.842c0-0.076 0.076-0.076 0.076-0.23v-1.062c0-0.076-0.076 0-0.076-0.076v-0.076h-0.076l-0.076-0.076c-0.085 0.031-0.187 0.058-0.291 0.075l-0.010 0.001v-0.383l-0.092-0.076v-2.449c0.019-0.115 0.045-0.216 0.080-0.314l-0.004 0.012c0.018-0.195 0.029-0.421 0.029-0.651s-0.010-0.456-0.031-0.679l0.002 0.029c-0.001-0.034-0.002-0.073-0.002-0.113 0-0.258 0.028-0.51 0.082-0.752l-0.004 0.023c-0.001-0.013-0.002-0.028-0.002-0.044 0-0.096 0.029-0.185 0.079-0.259l-0.001 0.002h0.076c-0.002-0.030-0.003-0.065-0.003-0.101 0-0.183 0.029-0.359 0.083-0.524l-0.003 0.012c0-0.076 0.076-0.23 0.076-0.301v-0.23l0.076-0.076v-0.301c0-0.23-0.23-0.23-0.23-0.383-0.008-0.051-0.012-0.109-0.012-0.168 0-0.16 0.033-0.313 0.092-0.452l-0.003 0.008c-0.018-0.138-0.029-0.297-0.029-0.459s0.010-0.321 0.031-0.478l-0.002 0.018 0.076-0.076v-0.23l0.076-0.076c0.076-0.076 0-0.301 0.076-0.383l0.076-0.076c0-0.301-0.076-0.301-0.23-0.536-0.005-0.044-0.008-0.096-0.008-0.147 0-0.167 0.031-0.327 0.088-0.474l-0.003 0.009c0-0.076 0.076-0.23 0.076-0.301 0.005-0.070 0.008-0.153 0.008-0.235 0-0.269-0.031-0.531-0.089-0.782l0.005 0.023c0.018-0.138 0.029-0.297 0.029-0.459s-0.010-0.321-0.031-0.478l0.002 0.018-0.076-0.076v-0.301c0-0.076 0.076-0.23 0.076-0.306h0.076v-0.23c0-0.076 0.076-0.076 0.076-0.23s0-0.306 0.076-0.306h0.076c-0.23-0.842-0.23-0.918-0.076-1.072h0.076c-0.002-0.014-0.003-0.031-0.003-0.048 0-0.096 0.029-0.186 0.080-0.26l-0.001 0.002 0.076-0.076c0.076-0.076 0-0.306 0.076-0.535 0-0.076 0.076 0 0.076-0.076 0.076-0.23 0-0.383 0.23-0.535v-0.337c0-0.076 0.23-0.076 0.23-0.23v-0.23c0-0.153 0.076-0.076 0.076-0.23 0.076-0.076 0-0.23 0.076-0.383 0-0.076 0.076-0.23 0.076-0.301v-0.081c0-0.076 0.076 0 0.076 0v-0.23c0-0.076 0.076-0.076 0.076-0.23v-0.076c-0-0.001-0-0.001-0-0.002 0-0.041 0.033-0.074 0.074-0.074 0.001 0 0.001 0 0.002 0h-0v-0.383c0.016-0.16 0.103-0.297 0.228-0.382l0.002-0.001c0.076 0 0.23-0.23 0.23-0.383-0.001 0-0.001 0-0.002 0-0.041 0-0.074-0.033-0.074-0.074 0-0.001 0-0.001 0-0.002v0h-0.23l-0.076-0.076c-0.076 0-0.076 0.23-0.076 0.383-0.001-0-0.001-0-0.002-0-0.041 0-0.074 0.033-0.074 0.074 0 0.001 0 0.001 0 0.002v-0c-0.018 0.104-0.029 0.223-0.029 0.345s0.011 0.241 0.031 0.357l-0.002-0.012-0.076 0.301h-0.076v0.235c-0.015 0.086-0.041 0.163-0.078 0.234l0.002-0.004v0.23h-0.076c0.004 0.034 0.006 0.073 0.006 0.112 0 0.152-0.030 0.298-0.085 0.431l0.003-0.008c0 0.23-0.23 0.306-0.23 0.383 0.001 0.013 0.002 0.028 0.002 0.044 0 0.096-0.029 0.185-0.079 0.259l0.001-0.002c0 0.076-0.076 0.076-0.23 0.23v0.23l-0.076 0.076c-0.076 0.076 0 0.383-0.076 0.536h-0.076s0 0.23-0.076 0.301c0 0.076 0 0.301-0.076 0.383 0 0.076-0.23 0.076-0.23 0.23v0.23h0.301l-0.076 0.076c0.001 0.013 0.002 0.028 0.002 0.044 0 0.096-0.029 0.185-0.079 0.259l0.001-0.002c0 0.076-0.076 0.076-0.076 0.23 0 0.076 0 0.301-0.076 0.301h-0.076c0 0.076 0 0.306-0.076 0.383v0.076c0 0.076-0.23 0.23-0.23 0.23-0.076 0.076 0 0.301-0.076 0.383s0.076 0.076 0.076 0.076c0.038 0.156 0.065 0.339 0.076 0.527l0 0.009v0.076l-0.153 0.076c0 0.076 0 0.301-0.076 0.383l-0.076 0.076v0.23h-0.069c-0.018 0.126-0.029 0.273-0.029 0.421s0.010 0.294 0.031 0.437l-0.002-0.016c-0.024 0.134-0.11 0.244-0.228 0.3l-0.002 0.001v0.337c0 0.076-0.076 0.076-0.23 0.23v0.071c-0.015 0.086-0.041 0.164-0.078 0.234l0.002-0.004v0.301c0.013-0.001 0.028-0.002 0.044-0.002 0.096 0 0.185 0.029 0.259 0.079l-0.002-0.001c0 0.23 0.076 0.383 0.076 0.689 0 0.23-0.076 0.23-0.23 0.306v0.301c0 0.076-0.076 0.076-0.076 0.23v0.383l-0.076 0.076c0.001 0.013 0.002 0.028 0.002 0.044 0 0.096-0.029 0.185-0.079 0.259l0.001-0.002c0 0.076-0.076 0.23-0.076 0.301v0.301c0 0.301 0.23 0.23 0.301 0.301v0.23l0.076 0.23c-0.033 0.151-0.060 0.334-0.075 0.52l-0.001 0.015 0.076 0.076v0.076c0.001 0.013 0.002 0.028 0.002 0.044 0 0.096-0.029 0.185-0.079 0.259l0.001-0.002c0 0.076-0.076 0-0.076 0.301 0.003 0.061 0.004 0.131 0.004 0.203 0 0.307-0.029 0.608-0.085 0.899l0.005-0.030v0.301c0 0.076-0.301 0.076-0.301 0.076-0.018 0.138-0.029 0.297-0.029 0.459s0.010 0.321 0.031 0.478l-0.002-0.018-0.076 0.076v1.377h-0.071v0.272c0.076 0 0.076 0.23 0 0.301l-0.076 0.076v1.148c0 0.076 0.076 0.23 0.076 0.301 0.018 0.195 0.029 0.422 0.029 0.651s-0.010 0.456-0.031 0.679l0.002-0.029c0 0.001 0 0.001 0 0.002 0 0.041-0.033 0.074-0.074 0.074-0.001 0-0.001 0-0.002-0h0c-0.076 0.076-0.23 0.23-0.383 0.076l-0.076-0.066-0.076 0.076c-0.23 0.076-0.306 0.076-0.383 0.23v0.076c-0.138 0.054-0.298 0.085-0.465 0.085-0.052 0-0.103-0.003-0.154-0.009l0.006 0.001s-0.076-0.076-0.076 0l-0.076 0.23h-0.076l-0.076 0.076c-0.076 0-0.301 0.076-0.301 0l-0.383 0.153c-0.076 0-0.23 0.076-0.301 0.076-0.092-0.018-0.198-0.029-0.306-0.029s-0.214 0.010-0.317 0.030l0.010-0.002-0.076 0.076h-0.24c-0.046 0.057-0.073 0.13-0.073 0.209 0 0.009 0 0.018 0.001 0.027l-0-0.001h-0.234c-0.076 0-0.23 0.23-0.306 0.301h-0.23c-0.153 0-0.306 0.23-0.459 0.23h-0.613c-0.076 0-0.23 0.23-0.23 0.301-0.23 0.076-0.535-0.076-0.689 0-0.076 0-0.076 0.301-0.076 0.301h-0.23c-0.076 0.076-0.076 0.076-0.076 0.23h-0.076l-0.23 0.301c-0.076 0.535 0.23 0.306 0.301 0.535 0.076 0.076 0 0.301 0.076 0.383 0 0.076 0.076 0 0.23 0.076 0.076 0.076 0.076 0.153 0.153 0.153 0.076 0.076 0.535-0.076 0.689 0 0.076 0.076 0.076 0.23 0.23 0.301 0.076 0.076 0.076 0 0.23 0.076 0.076 0.076 0 0.23 0.23 0.23 0.006 0 0.013 0 0.020 0 0.204 0 0.388-0.089 0.515-0.23l0.001-0.001c0.301-0.076 0.535 0 0.842-0.076 0.076 0 0.23-0.23 0.23-0.301h0.23l0.076-0.076h0.301c0.134-0.024 0.244-0.11 0.3-0.228l0.001-0.002h0.076c0.108-0.154 0.209-0.33 0.293-0.515l0.008-0.021h0.23c0.076 0 0.23-0.23 0.301-0.23h0.383c0.23 0 0.383-0.23 0.613-0.301h0.306c0.076 0 0.23-0.076 0.301-0.076s0.076 0.076 0.23 0l0.076-0.076h0.23c0.23 0.301 0.301 0.076 0.383 0.076 0.23-0.076 0.301 0 0.383-0.076 0 0 0.076-0.23 0.23-0.23 0.306-0.076 0.536 0.076 0.842 0.076l0.383-0.076s0-0.23 0.076-0.23c0.076-0.076 0.536-0.23 0.613-0.301l0.23-0.23c0.001-0 0.001-0 0.002-0 0.041 0 0.074 0.033 0.074 0.074 0 0.001 0 0.001-0 0.002v-0h0.567c0.124-0.008 0.222-0.106 0.23-0.229l0-0.001h0.301c0.076-0.076 0.301-0.23 0.383-0.301h0.766c-0.076-0.076-0.383-0.076-0.306-0.23 0.536-0.076 0.383 0.076 0.918-0.076l-0.23-0.076s0.076 0 0 0.076c-0.23 0.076-0.23 0-0.23 0 0.126-0.037 0.271-0.058 0.421-0.058s0.295 0.021 0.432 0.061l-0.011-0.003c0.613-0.076 0.076-0.23 0.23-0.301 0.301 0.23 0.995-0.076 1.377-0.076l-0.301 0.076c0.195-0.079 0.421-0.125 0.658-0.125 0.147 0 0.29 0.018 0.427 0.051l-0.012-0.003-0.076-0.153c0.613 0 0.918-0.383 1.377-0.076l-0.076-0.076c0.301-0.076 0.613-0.23 0.918-0.076-0-0.001-0-0.001-0-0.002 0-0.041 0.033-0.074 0.074-0.074 0.001 0 0.001 0 0.002 0h-0c0.23 0.076 0.383 0 0.842-0.076-0.301 0-0.23-0.23-0.535-0.23 0.613-0.23 0.613 0.23 1.072 0.076 0.301-0.076-0.301-0.076-0.383-0.076 0.842 0 1.608-0.613 2.143-0.23l-0.301 0.076c0.301 0.076 0.535 0 0.383 0h-0.23c0.918-0.301 1.531 0.076 2.449 0-0.063-0.048-0.142-0.076-0.228-0.076-0.001 0-0.001 0-0.002 0h0c0.383-0.076 0.535 0.301 1.072 0.076l-0.076-0.076c0.23-0.076 0.383 0 0.383 0.076 0-0.301 1.531-0.076 1.909-0.613 0.295 0.081 0.633 0.127 0.983 0.127 0.221 0 0.437-0.019 0.648-0.054l-0.023 0.003c0.383-0.23-0.383-0.23-0.23-0.383 0.149 0.018 0.322 0.029 0.497 0.029s0.348-0.011 0.518-0.031l-0.020 0.002c0 0.23-0.995 0.383 0 0.535l0.076-0.076c-0.103 0.029-0.233 0.055-0.365 0.074l-0.018 0.002c-0.301-0.076 0.23-0.076 0.23-0.23h0.995c0.076 0.23-0.535 0.23-0.613 0.23 0.842-0.076 1.684-0.383 2.526-0.383l-0.076-0.076c0.995 0.076 0.535-0.383 1.306-0.076 0.383-0.076-0.23-0.23 0.383-0.23 0.23 0 0.076 0.076 0 0.076 0.689 0 0.301-0.23 0.995-0.076l-0.23-0.23c0.721 0.16 1.563 0.269 2.423 0.301l0.026 0.001c-0.076-0.23-0.535-0.076-0.689-0.23 0.481 0.037 1.042 0.058 1.608 0.058s1.126-0.021 1.682-0.062l-0.074 0.004c-0.301 0.076 0.383 0.301-0.076 0.383-0.23-0.23-0.383 0-0.689-0.076 0.535 0.383 1.99-0.301 2.22 0.076l0.076-0.23c0.076 0 0.535 0.076 0.301 0.23l0.995-0.076c-0.388-0.138-0.836-0.221-1.302-0.23l-0.004-0c-0.301-0.076 0.383-0.076 0.076-0.301 0.689 0.23 0.383-0.076 1.072-0.076-0.301 0.23 0.689 0.301 0.689 0.383 0.092-0.016 0.199-0.025 0.308-0.025 0.219 0 0.429 0.037 0.624 0.106l-0.013-0.004c0.383 0 1.301-0.23 1.909-0.23-0.23-0.076-0.613-0.076-0.613-0.301 0.301 0.076 0.613 0.076 0.689-0.076-1.072-0.301-0.301 0.383-1.301 0.23-0.22-0.154-0.493-0.246-0.788-0.246-0.073 0-0.145 0.006-0.215 0.017l0.008-0.001c0.23-0.076 0.076-0.23 0.23-0.301 0.613 0.383 1.608 0 2.449 0.076 0.301 0.076 0.076 0.383 0.918 0.383l-0.689 0.076c0.689-0.076 0.23 0.076 0.842 0.076l-0.23-0.076c0.055-0.007 0.118-0.011 0.182-0.011 0.182 0 0.356 0.032 0.518 0.091l-0.011-0.003-0.23-0.076c0.23 0 0.613-0.076 0.613 0-0-0.001-0-0.001-0-0.002 0-0.041 0.033-0.074 0.074-0.074 0.001 0 0.001 0 0.002 0h0.383c-0.076 0-0.23 0-0.23-0.076 0.918 0 0.23-0.23 0.842-0.23-0.076 0 0.076-0.076 0.301-0.076 0 0.301 1.072 0.301 1.377 0.535l0.689 0.076c-0.23 0 0-0.076 0.23-0.076 0.23-0.076-0.301-0.301 0.383-0.301l0.535 0.23c-0.076 0 0-0.076 0-0.076l0.383 0.076c0.613-0.301 1.072 0.076 1.838 0-0.23 0-0.535 0-0.383-0.076h0.397l1.306 0.23c-0.076-0.076-0.842-0.076-0.535-0.23 0.126-0.018 0.273-0.029 0.421-0.029s0.294 0.010 0.437 0.031l-0.016-0.002c0 0.076-0.535 0.23 0 0.23 0.076 0 0.535-0.076 0.301-0.23 0.556 0.022 1.079 0.133 1.565 0.318l-0.034-0.011c0.076 0-0.076-0.076-0.076-0.076-0.301 0 0-0.23-0.613-0.076 0-0.301 0.842-0.076 1.225-0.076l-0.842-0.383c1.306-0.383 2.985 0 4.21 0-0.383 0.076-0.689 0-0.613 0.23 0.361 0.050 0.779 0.078 1.203 0.078 0.061 0 0.123-0.001 0.184-0.002l-0.009 0h-0.075c0.383-0.076 0.918 0.076 1.225-0.076 0-0.076-0.383 0.076-0.383-0.076h0.995c-0.301-0.076-0.995 0-1.306-0.076-0.301 0 0.535 0 0.383 0.23-0.587-0.009-1.138-0.149-1.63-0.393l0.022 0.010c-0.301-0.23 0.383-0.23 0.613-0.23 0.538 0.205 1.161 0.324 1.811 0.324 0.171 0 0.34-0.008 0.507-0.024l-0.021 0.002 0.535-0.23c0.383 0.23 0.301 0.535 1.072 0.535l-0.23-0.076c0.14-0.010 0.27-0.037 0.394-0.080l-0.011 0.003c-0.301-0.076-0.689-0.23-0.995-0.301 0.535-0.301 1.306 0.23 1.99 0.23 0 0-0.301 0-0.301-0.076 1.064 0.079 2.034 0.215 2.982 0.408l-0.15-0.026c0.301-0.076-0.613-0.076-0.535-0.301 0.383 0.076 0.918-0.076 0.995 0.076-0.23-0.23 0.918 0 0.23-0.23 1.63 0.011 3.219 0.15 4.768 0.407l-0.176-0.024c-0.076-0.076-0.076-0.076 0-0.23-0.060 0.004-0.129 0.007-0.199 0.007-0.485 0-0.943-0.114-1.349-0.316l0.018 0.008c0.306-0.076 0.842 0.23 0.918 0.076-0.23-0.076-0.535-0.076-0.535-0.23 0.057-0.003 0.123-0.004 0.19-0.004 0.285 0 0.563 0.029 0.831 0.085l-0.026-0.005-0.23 0.076c0.918 0.23 0.535 0.383 1.531 0.383 0.383-0.076 0-0.076 0-0.301 0.23 0.076 0.995-0.076 1.225 0.076h-0.613c0.392 0.025 0.757 0.108 1.097 0.239l-0.025-0.009-0.076-0.076c0.301 0.076 0.842 0.076 0.918 0.23l0.076-0.23c-0.23 0.23-0.842 0.076-0.918 0 0.153-0.23 0.766 0 0.918 0zM18.755 27.48c-0.301-0.076-0.23-0.23 0.076-0.23l0.076 0.076s0 0.076 0.23 0l-0.383 0.153zM21.511 25.719c0.383-0.076 0.301 0.076 0.689 0.076-0.535 0.149-0.383-0.076-0.689-0.076zM22.199 25.949c0.076-0.076 0.301-0.076 0.535-0.076-0.142 0.049-0.306 0.078-0.476 0.078-0.021 0-0.042-0-0.063-0.001l0.003 0zM24.19 26.561c-0.076-0.076 0.076 0 0.23-0.076h0.613c0 0.301-0.535 0.076-0.842 0.076zM28.936 26.259c0-0.076-0.613-0.076-0.689-0.076-0.076-0.23 0.076-0.076 0.301-0.23-0.076 0 0.23 0.23 0.535 0.076zM29.625 26.182c0.383-0.076 0.842-0.076 0.918-0.23 0.005 0.226-0.689 0.379-0.918 0.226zM33.070 25.264h0.23c0.23-0.076-0.301-0.076-0.383-0.23 0.23-0.076 0.842 0 0.613 0-0.535 0.076 0.301 0.23-0.076 0.306h0.301c-0.459 0.153-0.383-0.153-0.689-0.076zM33.758 24.881c0.301-0.23 0.535 0 0.689 0-0.383-0.004-0.459 0.149-0.684-0.004zM37.811 24.957c0.23 0 0.918 0.23 0.842-0.076l0.076 0.076h0.23c-0.167 0.076-0.362 0.12-0.568 0.12-0.209 0-0.407-0.046-0.585-0.127l0.009 0.004zM41.715 24.422h0.301c-0.076-0.076-0.383-0.23-0.23-0.23 0.076 0.076 0.613 0.076 0.613 0.23-0.374-0.080-0.599 0.302-0.68-0.004zM43.399 24.269v0c-0.076 0-0.301 0.076-0.301 0zM43.016 25.494l-0.23-0.076h0.383zM42.715 25.034c0.076 0.23 0.918 0 1.072 0.076-0.459 0.072-1.377 0.149-1.072-0.080zM43.862 24.881h0.23c0.23 0 0.301 0 0.301 0.076h0.383c-0.383 0.076-0.383-0.076-0.613-0.076zM55.497 24.115l0.689-0.080c-0.306 0.076-0.306 0.306-0.689 0.076zM57.029 24.574c-0.375-0.073-0.709-0.206-1.008-0.39l0.013 0.007c0.535-0.076 0.689 0.23 0.613 0.301 0.383 0.076 0.301 0 0.535-0.076l-0.153 0.153zM59.554 24.417c0.306 0.076 0.076 0.076 0.23 0.23v0c-0.153-0.075-0.23-0.075-0.23-0.229zM58.942 24.718l0.535 0.076-0.301-0.076 0.842 0.23c-0.383 0-0.995-0.076-1.072-0.23zM60.014 24.105c0.138-0.037 0.296-0.058 0.459-0.058s0.321 0.021 0.472 0.061l-0.013-0.003c-0.306 0.006-0.995 0.159-0.918 0.006zM61.009 23.953v0l0.23 0.076c-0.535 0.082-0.306 0.006-0.23-0.070zM67.669 24.412c-0.098-0.003-0.213-0.005-0.329-0.005-0.477 0-0.948 0.029-1.41 0.087l0.055-0.006v-0.076c-0.076 0-0.076 0-0.23-0.076 0.076 0 0.076 0 0.23 0.076h0.613c-0.076-0.076-0.301-0.076-0.383-0.076 0.383-0.23 1.306 0.301 0.995-0.076 0.076 0.006 0.689 0.082 0.459 0.159zM70.424 24.564l0.076-0.076h0.235zM74.711 24.564l0.23-0.076 0.23 0.23-0.459-0.153z"></path>
<path d="M45.241 25.642c0.076 0 0.076 0 0.076-0.076 0 0.076 0 0.076-0.076 0.076zM46.312 25.642v0zM80.529 25.341c-0.076-0.076-0.23 0-0.383 0 0.234 0 0.613 0.148 0.383 0zM79.61 25.035c-0.14-0.010-0.27-0.037-0.394-0.080l0.011 0.003c0.1 0.046 0.217 0.072 0.34 0.072 0.015 0 0.030-0 0.045-0.001l-0.002 0zM76.242 24.958c-0.001 0-0.002 0-0.003 0-0.217 0-0.427-0.028-0.627-0.080l0.017 0.004c0.175 0.192 0.426 0.311 0.705 0.311 0.048 0 0.096-0.004 0.142-0.011l-0.005 0.001c-0.076 0-1.148-0.23-0.23-0.23zM73.639 24.653c0.129 0.142 0.314 0.23 0.52 0.23 0.005 0 0.011-0 0.016-0h-0.001c-0.076-0.076 0.076-0.076 0.306-0.076-0.198-0.102-0.431-0.162-0.679-0.162-0.057 0-0.114 0.003-0.17 0.009l0.007-0.001zM64.76 25.265c-0.076 0-0.535 0-0.301 0.076h0.535c0-0.076-0.153-0.076-0.23-0.076zM62.464 25.035c0.23 0 0-0.076 0.383-0.076l-0.383-0.076zM63.076 23.964v0zM61.239 25.341l-0.301-0.23c-0.081 0.071-0.081 0.23 0.301 0.23zM58.79 25.341v0zM57.411 25.265v0zM37.203 25.878c0.306-0.301 0.842 0 0.995-0.23-0.306 0.071-1.072-0.005-0.995 0.225zM23.195 26.948h-0.842c0.689 0 0.23 0.148 0.842 0z"></path>
<path d="M32.074 18.982c0.613 1.301 1.072 2.143 1.838 2.526v0.23h-4.363v-0.23c0.613-0.23 0.918-0.995 0.301-2.526l-0.301-0.383h-3.904l-0.23 0.535c-0.535 1.225-0.23 1.99 0.613 2.449v0.23h-3.291v-0.23c0.932-0.548 1.636-1.4 1.981-2.418l0.009-0.031 3.598-8.268h0.301l3.45 8.114zM29.319 18.14l-1.76-4.363-1.684 4.363h3.444zM39.576 19.748c-0.613-0.842-1.072-1.608-1.838-2.679v-0.23c1.411-0.059 2.533-1.218 2.533-2.638 0-0.068-0.003-0.136-0.008-0.203l0.001 0.009c0.012-0.086 0.019-0.184 0.019-0.285 0-1.206-0.977-2.183-2.183-2.183-0.1 0-0.199 0.007-0.296 0.020l0.011-0.001h-0.535v8.268c-0.012 0.083-0.019 0.179-0.019 0.277 0 0.621 0.273 1.178 0.705 1.559l0.002 0.002v0.23h-3.598v-0.23c0.383-0.23 0.689-0.689 0.689-1.838v-6.74c0.012-0.083 0.019-0.179 0.019-0.277 0-0.621-0.273-1.178-0.705-1.559l-0.002-0.002v-0.23h4.057c2.985 0 4.363 1.072 4.363 2.914-0.045 1.461-1.218 2.634-2.675 2.679l-0.004 0 0.995 1.225c0.863 1.286 1.904 2.375 3.103 3.262l0.035 0.025v0.301c-0.313 0.248-0.713 0.397-1.148 0.397-0.081 0-0.161-0.005-0.239-0.015l0.009 0.001c-1.377 0.153-2.067-0.459-3.291-2.067zM53.584 11.099v3.139h-0.23c-0.1-1.438-1.242-2.58-2.67-2.679l-0.009-0.001h-0.613v8.268c-0.012 0.083-0.019 0.179-0.019 0.277 0 0.621 0.273 1.178 0.705 1.559l0.002 0.002v0.23h-3.598v-0.23c0.383-0.23 0.689-0.689 0.689-1.838v-8.268h-0.535c-1.404 0.119-2.519 1.208-2.678 2.589l-0.001 0.014h-0.23v-3.139h9.186zM62.923 18.982v2.679h-7.807v-0.23c0.383-0.23 0.689-0.689 0.689-1.838v-6.66c0.012-0.083 0.019-0.179 0.019-0.277 0-0.621-0.273-1.178-0.705-1.559l-0.002-0.002v-0.23h7.582v2.602h-0.23c-0.442-1.259-1.621-2.146-3.007-2.146-0.046 0-0.092 0.001-0.138 0.003l0.007-0h-1.306v4.592l1.072-0.076c0.888-0.065 1.615-0.688 1.834-1.517l0.003-0.014h0.23v3.521h-0.23c-0.248-0.828-0.96-1.438-1.827-1.532l-0.010-0.001-0.995-0.076v3.291c0 0.995 0.383 1.377 1.306 1.377h0.301c0.029 0.001 0.062 0.002 0.096 0.002 1.378 0 2.538-0.933 2.884-2.201l0.005-0.021c0.076 0.301 0.23 0.301 0.23 0.301zM67.898 21.433c0.058 0.008 0.124 0.012 0.192 0.012 0.825 0 1.493-0.668 1.493-1.493 0-0.018-0-0.035-0.001-0.053l0 0.003c0-2.526-5.124-2.449-5.124-5.971 0-1.838 1.531-2.985 3.521-2.985 0.079-0.005 0.172-0.007 0.265-0.007 1.017 0 1.96 0.318 2.735 0.86l-0.015-0.010v2.526h-0.23c-0.689-2.143-1.914-2.832-2.909-2.832-0.048-0.006-0.103-0.009-0.159-0.009-0.758 0-1.372 0.614-1.372 1.372 0 0.005 0 0.010 0 0.015v-0.001c0 2.526 5.205 2.526 5.205 5.971 0 1.838-1.301 3.215-3.75 3.215-0.091 0.005-0.197 0.009-0.303 0.009-1.081 0-2.088-0.317-2.933-0.863l0.021 0.013v-2.602h0.072c0.918 1.838 2.067 2.832 3.291 2.832zM76.012 19.825c-0.012 0.083-0.019 0.179-0.019 0.277 0 0.621 0.273 1.178 0.705 1.559l0.002 0.002v0.23h-3.598v-0.23c0.383-0.23 0.689-0.689 0.689-1.838v-6.731c0.012-0.083 0.019-0.179 0.019-0.277 0-0.621-0.273-1.178-0.705-1.559l-0.002-0.002v-0.23h3.598v0.23c-0.383 0.23-0.689 0.689-0.689 1.838zM86.499 18.982c0.613 1.301 1.072 2.143 1.838 2.526v0.23h-4.44v-0.23c0.613-0.23 0.918-0.995 0.301-2.526l-0.301-0.383h-3.981l-0.23 0.535c-0.535 1.225-0.23 1.99 0.613 2.449v0.23h-3.291v-0.23c0.932-0.548 1.636-1.4 1.981-2.418l0.009-0.031 3.598-8.268h0.301l3.598 8.114zM83.667 18.14l-1.838-4.363-1.684 4.363z"></path>
<path d="M28.816 27.558l1.162 2.914c0.027 0.052 0.064 0.095 0.109 0.128l0.001 0.001c0.080 0.032 0.173 0.057 0.27 0.071l0.007 0.001v0.15h-0.986v-0.15c0.053 0 0.081-0.043 0.081-0.128-0.008-0.054-0.021-0.103-0.041-0.15l0.001 0.004-0.218-0.594c-0.025-0.085-0.124-0.128-0.294-0.128h-0.721c-0.123 0-0.201 0.042-0.222 0.128l-0.167 0.502c-0.011 0.036-0.017 0.077-0.017 0.119 0 0.003 0 0.006 0 0.010v-0c0 0.149 0.084 0.222 0.252 0.222v0.167h-0.918v-0.167c0.197-0.023 0.357-0.163 0.409-0.347l0.001-0.003 1.161-2.767zM28.615 28.219l-0.422 1.005c-0.029 0.048-0.050 0.104-0.056 0.165l-0 0.002c0 0.051 0.061 0.076 0.184 0.076h0.611c0.1 0 0.146-0.018 0.146-0.056-0.010-0.062-0.030-0.118-0.058-0.169l0.001 0.003z"></path>
<path d="M30.516 28.114l0.133-0.54c0.074 0.012 0.145 0.020 0.212 0.026s0.132 0.009 0.194 0.009h1.862q0.1 0 0.208-0.009c0.069-0.006 0.141-0.014 0.215-0.026v0.573l-0.129 0.021c-0.013-0.19-0.17-0.34-0.363-0.34-0.014 0-0.027 0.001-0.041 0.002l0.002-0h-0.502c-0.072 0-0.108 0.028-0.108 0.081v2.571c0 0.126 0.114 0.188 0.342 0.188v0.15h-1.127v-0.15c0.201 0 0.301-0.062 0.301-0.188v-2.571c0-0.065-0.037-0.1-0.112-0.1h-0.581q-0.187 0-0.359 0.333z"></path>
<path d="M37.045 30.82h-1.072v-0.15c0.216 0 0.325-0.039 0.325-0.116v-2.587c0-0.141-0.108-0.21-0.325-0.21v-0.149h1.076v0.149c-0.179 0-0.269 0.069-0.269 0.21v0.926c0 0.037 0.026 0.056 0.077 0.056h1.608c0.048 0 0.072-0.019 0.072-0.056v-0.926c0-0.141-0.1-0.21-0.307-0.21v-0.149h1.059v0.149c-0.179 0-0.268 0.069-0.268 0.21v2.587c0 0.076 0.089 0.116 0.268 0.116v0.15h-1.065v-0.15c0.201 0 0.307-0.039 0.307-0.116v-1.336c0-0.003 0.001-0.006 0.001-0.009 0-0.035-0.029-0.064-0.064-0.064-0.003 0-0.006 0-0.009 0.001l0-0h-1.608c-0.051 0-0.077 0.024-0.077 0.072v1.336c0 0.076 0.090 0.116 0.269 0.116z"></path>
<path d="M40.017 27.61h1.482c0.104-0 0.203-0.016 0.297-0.045l-0.007 0.002 0.034 0.047-0.076 0.581h-0.133c-0.007-0.108-0.049-0.205-0.116-0.281l0 0c-0.063-0.063-0.15-0.101-0.246-0.101-0.009 0-0.018 0-0.026 0.001l0.001-0h-0.319c-0.071 0-0.106 0.038-0.106 0.115v0.943c0 0.1 0.036 0.146 0.111 0.146h0.47c0.002 0 0.005 0 0.008 0 0.060 0 0.116-0.019 0.161-0.052l-0.001 0.001c0.041-0.028 0.076-0.061 0.105-0.099l0.001-0.001h0.111l-0.093 0.666h-0.125c-0.031-0.201-0.124-0.308-0.277-0.308h-0.359c-0.074 0-0.111 0.035-0.111 0.108v1.177c0 0.072 0.036 0.108 0.111 0.108h0.201c0.012 0.001 0.025 0.001 0.039 0.001 0.152 0 0.295-0.044 0.414-0.12l-0.003 0.002c0.103-0.067 0.182-0.163 0.228-0.276l0.001-0.004 0.128 0.034-0.081 0.569h-1.786v-0.15c0.182 0 0.273-0.033 0.273-0.1v-2.617c0-0.127-0.1-0.192-0.308-0.192z"></path>
<path d="M42.84 27.614h0.397c0.105 0 0.201 0 0.271 0l0.216-0.007 0.22-0.006c0.078 0 0.174 0 0.288 0 0.002-0 0.005-0 0.008-0 0.122 0 0.239 0.022 0.347 0.062l-0.007-0.002c0.107 0.039 0.2 0.096 0.278 0.167l-0.001-0.001c0.077 0.069 0.139 0.153 0.182 0.246l0.002 0.005c0.042 0.091 0.066 0.197 0.066 0.308 0 0.003 0 0.005-0 0.008v-0c0 0.001 0 0.002 0 0.004 0 0.106-0.015 0.209-0.042 0.306l0.002-0.008c-0.029 0.098-0.068 0.183-0.118 0.26l0.002-0.004c-0.053 0.081-0.11 0.152-0.173 0.216l0-0c-0.066 0.067-0.136 0.13-0.209 0.187l-0.005 0.003v0.017c0.063 0.062 0.121 0.127 0.175 0.197l0.003 0.004c0.066 0.084 0.141 0.175 0.222 0.272s0.168 0.201 0.26 0.301c0.089 0.099 0.183 0.189 0.282 0.273l0.004 0.004c0.088 0.075 0.187 0.141 0.292 0.197l0.009 0.004c0.089 0.048 0.195 0.077 0.308 0.078h0.001v0.12q-0.214 0-0.402 0c-0.014 0-0.030 0.001-0.047 0.001-0.107 0-0.211-0.009-0.312-0.027l0.011 0.002c-0.114-0.022-0.215-0.063-0.305-0.119l0.004 0.002c-0.111-0.072-0.203-0.162-0.274-0.269l-0.002-0.003-0.335-0.463c-0.1-0.145-0.185-0.262-0.241-0.354-0.019-0.031-0.042-0.058-0.068-0.080l-0-0c-0.023-0.014-0.050-0.021-0.079-0.021-0.004 0-0.008 0-0.011 0l0.001-0h-0.371c-0.066 0-0.1 0.018-0.1 0.055v0.987c0 0.094 0.148 0.141 0.444 0.141v0.15h-1.152v-0.15c0.139 0 0.209-0.046 0.209-0.141v-2.63c0-0.094-0.082-0.142-0.248-0.142zM43.588 29.202c0 0.037 0.043 0.066 0.129 0.089s0.185 0.035 0.288 0.035c0.007 0 0.014-0 0.021-0h-0.001c0.002 0 0.005 0 0.007 0 0.164 0 0.309-0.078 0.401-0.2l0.001-0.001c0.049-0.064 0.088-0.139 0.112-0.22l0.001-0.005c0.026-0.083 0.041-0.178 0.041-0.277 0-0.003 0-0.005-0-0.008v0c0-0.005 0-0.011 0-0.017 0-0.117-0.017-0.229-0.047-0.336l0.002 0.009c-0.027-0.098-0.071-0.184-0.128-0.259l0.001 0.002c-0.050-0.066-0.113-0.12-0.185-0.159l-0.003-0.002c-0.065-0.035-0.143-0.056-0.226-0.056-0 0-0 0-0.001 0h-0.235c-0.12 0-0.179 0.034-0.179 0.1z"></path>
<path d="M47.542 30.82h-1.060v-0.15c0.194 0 0.29-0.039 0.29-0.116v-2.587c0-0.141-0.1-0.21-0.307-0.21v-0.149h1.062v0.149c-0.182 0-0.272 0.069-0.272 0.21v2.587c0 0.076 0.1 0.116 0.29 0.116z"></path>
<path d="M48.17 28.114l0.132-0.54c0.074 0.012 0.145 0.020 0.211 0.026s0.133 0.009 0.195 0.009h1.862c0.069 0 0.138 0 0.207-0.009s0.143-0.014 0.216-0.026v0.573l-0.129 0.021c-0.013-0.19-0.17-0.34-0.363-0.34-0.014 0-0.027 0.001-0.041 0.002l0.002-0h-0.502c-0.071 0-0.108 0.028-0.108 0.081v2.571c0 0.126 0.115 0.188 0.342 0.188v0.15h-1.127v-0.15c0.201 0 0.301-0.062 0.301-0.188v-2.571c0-0.065-0.037-0.1-0.111-0.1h-0.581c-0.126 0-0.246 0.11-0.36 0.333z"></path>
<path d="M52.824 27.558l1.162 2.914c0.027 0.052 0.064 0.095 0.109 0.128l0.001 0.001c0.080 0.032 0.173 0.057 0.27 0.071l0.007 0.001v0.15h-0.986v-0.15c0.054 0 0.080-0.043 0.080-0.128-0.008-0.054-0.021-0.104-0.040-0.15l0.002 0.004-0.218-0.594c-0.025-0.085-0.124-0.128-0.294-0.128h-0.722c-0.122 0-0.201 0.042-0.221 0.128l-0.167 0.502c-0.011 0.036-0.017 0.077-0.017 0.119 0 0.003 0 0.006 0 0.010v-0c0 0.149 0.083 0.222 0.252 0.222v0.167h-0.918v-0.167c0.197-0.023 0.357-0.163 0.409-0.347l0.001-0.003 1.162-2.767zM52.623 28.219l-0.423 1.005c-0.029 0.048-0.048 0.105-0.054 0.165l-0 0.002c0 0.051 0.060 0.076 0.183 0.076h0.611c0.1 0 0.145-0.018 0.145-0.056-0.010-0.062-0.029-0.118-0.056-0.169l0.001 0.003z"></path>
<path d="M56.514 27.551c0.405 0.016 0.789 0.062 1.162 0.137l-0.047-0.008-0.055 0.791h-0.121c-0.021-0.124-0.054-0.235-0.098-0.34l0.004 0.010c-0.039-0.092-0.099-0.169-0.174-0.228l-0.001-0.001c-0.085-0.063-0.187-0.109-0.297-0.131l-0.005-0.001c-0.125-0.028-0.269-0.044-0.416-0.044-0.014 0-0.028 0-0.042 0l0.002-0c-0.012-0-0.027-0.001-0.042-0.001-0.193 0-0.379 0.034-0.55 0.096l0.011-0.004c-0.152 0.058-0.28 0.148-0.382 0.262l-0.001 0.001c-0.097 0.115-0.17 0.254-0.209 0.406l-0.002 0.007c-0.041 0.154-0.064 0.332-0.064 0.515 0 0.009 0 0.018 0 0.027v-0.001c-0 0.004-0 0.008-0 0.012 0 0.226 0.042 0.441 0.12 0.64l-0.004-0.012c0.078 0.201 0.185 0.373 0.318 0.522l-0.001-0.002c0.13 0.144 0.287 0.261 0.462 0.344l0.009 0.004c0.168 0.079 0.365 0.126 0.573 0.126 0.005 0 0.010-0 0.014-0h-0.001c0.018 0.001 0.040 0.002 0.061 0.002 0.112 0 0.22-0.015 0.323-0.044l-0.008 0.002c0.063-0.017 0.116-0.052 0.154-0.1l0-0.001v-1.046c0-0.077-0.108-0.116-0.326-0.116v-0.149h1.043v0.149c-0.171 0-0.256 0.038-0.256 0.116v1.114c-0.15 0.101-0.326 0.178-0.515 0.221l-0.011 0.002c-0.192 0.041-0.412 0.064-0.638 0.064-0.017 0-0.035-0-0.052-0l0.003 0c-0.011 0-0.023 0-0.036 0-0.258 0-0.505-0.050-0.731-0.142l0.013 0.005c-0.421-0.168-0.748-0.495-0.911-0.905l-0.004-0.011c-0.077-0.191-0.122-0.413-0.122-0.646 0-0.002 0-0.004 0-0.006v0c-0-0.008-0-0.017-0-0.026 0-0.231 0.039-0.452 0.112-0.658l-0.004 0.014c0.072-0.198 0.185-0.367 0.33-0.502l0.001-0.001c0.16-0.143 0.352-0.254 0.564-0.321l0.011-0.003c0.248-0.081 0.534-0.132 0.831-0.141l0.004-0z"></path>
<path d="M58.603 27.61h1.477c0.104-0 0.203-0.016 0.297-0.045l-0.007 0.002 0.034 0.047-0.076 0.581h-0.133c-0.005-0.107-0.045-0.205-0.109-0.281l0.001 0.001c-0.063-0.063-0.151-0.101-0.247-0.101-0.009 0-0.017 0-0.025 0.001l0.001-0h-0.321c-0.070 0-0.106 0.038-0.106 0.115v0.943c0 0.1 0.037 0.146 0.112 0.146h0.469c0.002 0 0.005 0 0.007 0 0.061 0 0.117-0.019 0.163-0.052l-0.001 0.001c0.039-0.028 0.072-0.061 0.1-0.099l0.001-0.001h0.112l-0.094 0.666h-0.12c-0.031-0.201-0.124-0.308-0.278-0.308h-0.358c-0.074 0-0.112 0.035-0.112 0.108v1.177c0 0.072 0.037 0.108 0.112 0.108h0.201c0.011 0.001 0.025 0.001 0.038 0.001 0.153 0 0.296-0.044 0.416-0.12l-0.003 0.002c0.103-0.067 0.182-0.163 0.227-0.276l0.001-0.004 0.128 0.034-0.080 0.569h-1.79v-0.15c0.182 0 0.273-0.033 0.273-0.1v-2.617c0-0.127-0.1-0.192-0.307-0.192z"></path>
<path d="M64.551 30.82h-1.105v-0.15c0.211 0 0.316-0.045 0.316-0.137v-2.592c0-0.122-0.112-0.184-0.334-0.184v-0.145h0.683c0.1 0 0.182 0 0.239 0s0.1 0 0.144-0.006l0.113-0.009h0.133c0.003-0 0.006-0 0.010-0 0.12 0 0.235 0.022 0.34 0.062l-0.007-0.002c0.108 0.040 0.201 0.097 0.28 0.168l-0.001-0.001c0.161 0.142 0.261 0.349 0.261 0.58 0 0.003 0 0.005-0 0.008v-0c0 0.007 0 0.015 0 0.024 0 0.154-0.037 0.3-0.103 0.428l0.002-0.005c-0.067 0.126-0.155 0.232-0.261 0.316l-0.002 0.002c-0.105 0.083-0.229 0.148-0.364 0.188l-0.008 0.002c-0.127 0.039-0.272 0.061-0.423 0.061-0.001 0-0.003 0-0.004 0h-0.043c-0.006 0.001-0.013 0.001-0.021 0.001s-0.014-0-0.021-0.001l0.001 0v-0.178h0.050c0.004 0 0.008 0 0.013 0 0.1 0 0.198-0.012 0.291-0.035l-0.008 0.002c0.088-0.020 0.164-0.061 0.227-0.116l-0.001 0c0.065-0.060 0.114-0.135 0.144-0.219l0.001-0.004c0.033-0.095 0.052-0.205 0.052-0.319 0-0.012-0-0.024-0.001-0.036l0 0.002c0-0.007 0-0.015 0-0.023 0-0.214-0.086-0.408-0.225-0.548l0 0c-0.057-0.056-0.123-0.103-0.197-0.138l-0.004-0.002c-0.050-0.026-0.108-0.043-0.171-0.047l-0.001-0h-0.106c-0.135 0-0.201 0.049-0.201 0.146v2.612c0 0.1 0.1 0.154 0.301 0.154z"></path>
<path d="M68.015 27.551c0.008-0 0.018-0 0.027-0 0.249 0 0.488 0.040 0.712 0.113l-0.016-0.005c0.216 0.071 0.403 0.179 0.561 0.318l-0.002-0.002c0.153 0.137 0.276 0.304 0.359 0.493l0.004 0.009c0.083 0.189 0.131 0.41 0.131 0.641 0 0.009-0 0.019-0 0.028l0-0.001c0 0.002 0 0.005 0 0.008 0 0.238-0.045 0.466-0.126 0.676l0.004-0.013c-0.165 0.426-0.491 0.758-0.901 0.928l-0.011 0.004c-0.21 0.088-0.455 0.139-0.712 0.139-0.011 0-0.022-0-0.033-0l0.002 0c-0.014 0-0.030 0.001-0.046 0.001-0.263 0-0.514-0.052-0.743-0.146l0.013 0.005c-0.213-0.090-0.394-0.217-0.542-0.375l-0.001-0.001c-0.138-0.15-0.246-0.33-0.314-0.528l-0.003-0.011c-0.064-0.185-0.1-0.398-0.1-0.62 0-0.004 0-0.009 0-0.013v0.001c0-0.216 0.040-0.424 0.111-0.615l-0.004 0.012c0.074-0.205 0.182-0.382 0.32-0.53l-0.001 0.001c0.148-0.158 0.328-0.285 0.53-0.37l0.010-0.004c0.217-0.092 0.469-0.145 0.733-0.145 0.013 0 0.025 0 0.037 0l-0.002-0zM67.975 27.714c-0.008-0-0.017-0-0.026-0-0.173 0-0.337 0.040-0.483 0.111l0.007-0.003c-0.143 0.070-0.262 0.169-0.354 0.29l-0.002 0.002c-0.094 0.125-0.167 0.272-0.21 0.431l-0.002 0.009c-0.044 0.159-0.069 0.341-0.069 0.529 0 0.007 0 0.015 0 0.022v-0.001c-0 0.004-0 0.008-0 0.012 0 0.21 0.029 0.414 0.084 0.606l-0.004-0.016c0.054 0.195 0.138 0.365 0.247 0.516l-0.003-0.005c0.107 0.146 0.241 0.266 0.396 0.352l0.006 0.003c0.155 0.084 0.339 0.133 0.535 0.133 0.009 0 0.018-0 0.027-0l-0.001 0c0.009 0 0.019 0 0.030 0 0.179 0 0.349-0.042 0.499-0.118l-0.006 0.003c0.141-0.073 0.257-0.175 0.346-0.298l0.002-0.003c0.091-0.129 0.16-0.281 0.199-0.445l0.002-0.009c0.038-0.162 0.059-0.349 0.059-0.54 0-0.005 0-0.010-0-0.014v0.001c0-0.008 0-0.017 0-0.027 0-0.222-0.034-0.435-0.097-0.636l0.004 0.015c-0.058-0.189-0.147-0.353-0.26-0.495l0.002 0.003c-0.108-0.131-0.242-0.238-0.395-0.311l-0.007-0.003c-0.149-0.070-0.323-0.112-0.507-0.112-0.007 0-0.013 0-0.020 0h0.001z"></path>
<path d="M71.567 30.82h-1.060v-0.15c0.194 0 0.29-0.039 0.29-0.116v-2.587c0-0.141-0.1-0.21-0.307-0.21v-0.149h1.059v0.149c-0.182 0-0.272 0.069-0.272 0.21v2.587c0 0.076 0.1 0.116 0.29 0.116z"></path>
<path d="M73.408 30.82h-0.992v-0.15c0.214 0 0.322-0.061 0.322-0.183v-2.878h0.187l2.375 2.545v-2.186c0-0.141-0.147-0.21-0.44-0.21v-0.149h1.017v0.149c-0.237 0-0.355 0.069-0.355 0.21v2.869l-0.112 0.046-2.416-2.549v2.153c0 0.122 0.138 0.183 0.414 0.183z"></path>
<path d="M76.418 28.114l0.133-0.54c0.073 0.012 0.144 0.020 0.211 0.026s0.132 0.009 0.194 0.009h1.863c0.068 0 0.137 0 0.207-0.009s0.142-0.014 0.215-0.026v0.573l-0.128 0.021c-0.013-0.19-0.171-0.34-0.363-0.34-0.014 0-0.027 0.001-0.041 0.002l0.002-0h-0.502c-0.071 0-0.106 0.028-0.106 0.081v2.571c0 0.126 0.114 0.188 0.342 0.188v0.15h-1.129v-0.15c0.201 0 0.301-0.062 0.301-0.188v-2.571c0-0.065-0.037-0.1-0.111-0.1h-0.581q-0.188 0-0.36 0.333z"></path>
<path d="M79.878 27.61h1.477c0.104-0 0.204-0.016 0.297-0.045l-0.007 0.002 0.034 0.047-0.076 0.581h-0.133c-0.006-0.107-0.046-0.204-0.109-0.281l0.001 0.001c-0.064-0.063-0.151-0.101-0.247-0.101-0.008 0-0.017 0-0.025 0.001l0.001-0h-0.32c-0.071 0-0.108 0.038-0.108 0.115v0.943c0 0.1 0.037 0.146 0.113 0.146h0.468c0.002 0 0.005 0 0.008 0 0.060 0 0.116-0.019 0.161-0.052l-0.001 0.001c0.041-0.028 0.076-0.061 0.105-0.099l0.001-0.001h0.111l-0.093 0.666h-0.125c-0.031-0.201-0.124-0.308-0.277-0.308h-0.351c-0.075 0-0.113 0.035-0.113 0.108v1.177c0 0.072 0.037 0.108 0.113 0.108h0.201c0.012 0.001 0.025 0.001 0.039 0.001 0.152 0 0.295-0.044 0.414-0.12l-0.003 0.002c0.103-0.067 0.183-0.163 0.228-0.276l0.001-0.004 0.128 0.034-0.080 0.569h-1.794v-0.15c0.183 0 0.274-0.033 0.274-0.1v-2.617c0-0.127-0.1-0.192-0.307-0.192z"></path>
</svg>
