<?xml version="1.0" standalone="no"?>
<!DOCTYPE svg PUBLIC "-//W3C//DTD SVG 20010904//EN"
 "http://www.w3.org/TR/2001/REC-SVG-20010904/DTD/svg10.dtd">
<svg version="1.0" xmlns="http://www.w3.org/2000/svg"
 width="576.000000pt" height="576.000000pt" viewBox="0 0 576.000000 576.000000"
 preserveAspectRatio="xMidYMid meet">
<metadata>
Created by potrace 1.11, written by Peter Selinger 2001-2013
</metadata>
<g transform="translate(0.000000,576.000000) scale(0.100000,-0.100000)"
fill="#000000" stroke="none">
<path d="M884 5441 c-2 -2 -22 -4 -44 -3 -38 2 -40 0 -40 -26 1 -95 1 -121 3
-155 1 -20 0 -37 -3 -37 -4 0 -4 -137 1 -150 1 -3 1 -9 0 -13 -1 -5 -2 -50 -1
-100 0 -51 0 -117 -1 -147 0 -30 0 -61 0 -67 0 -13 1 -62 2 -275 0 -57 0 -114
-1 -128 -1 -14 -2 -32 -1 -40 0 -8 0 -60 0 -115 -1 -55 0 -106 0 -112 1 -17 2
-38 2 -98 0 -27 0 -54 0 -60 1 -11 0 -207 0 -240 0 -11 0 -63 0 -115 1 -52 1
-102 0 -110 0 -17 0 -190 0 -205 1 -5 0 -32 0 -60 -2 -53 -2 -160 0 -345 0
-63 0 -122 0 -130 0 -8 0 -69 0 -135 0 -66 0 -127 0 -135 0 -13 0 -94 0 -125
0 -5 0 -44 0 -85 0 -41 0 -82 0 -90 0 -8 0 -37 0 -65 -1 -27 0 -94 1 -148 2
-53 1 -97 -2 -97 -3 0 -4 -37 -2 -82 1 -46 2 -105 1 -133 0 -27 -1 -54 0 -60
4 -82 5 -205 0 -205 -4 0 -3 -17 0 -37 4 -21 4 -53 0 -71 -3 -18 -3 -34 1 -37
4 -2 4 -24 1 -47 -4 -24 -4 -62 -1 -86 4 -23 4 -44 2 -47 -5 -4 -5 -27 0 -218
2 -53 1 -97 -2 -97 -3 0 -4 -21 -3 -47 1 -27 2 -64 3 -83 0 -19 1 -63 0 -98
-1 -34 2 -67 5 -72 3 -6 2 -10 -3 -10 -5 0 -7 -14 -3 -32 l7 -33 1289 0 c710
0 1340 3 1400 8 183 13 258 21 385 42 17 3 45 7 63 10 17 3 50 11 72 17 22 6
48 13 57 15 60 11 252 83 353 133 198 98 396 265 503 425 26 38 50 72 53 75 8
7 84 155 102 200 40 96 75 221 84 299 3 25 8 64 12 86 14 79 2 283 -21 370 -5
22 -12 48 -14 58 -12 67 -79 218 -132 302 -114 179 -243 296 -430 392 -136 69
-370 141 -557 169 -27 5 -53 9 -57 10 -5 1 -20 2 -35 3 -37 2 -13 17 40 25 21
3 60 13 85 20 40 12 60 18 112 31 32 7 122 42 170 66 33 16 63 29 66 29 11 0
170 106 203 135 92 82 152 151 214 245 48 73 119 240 131 310 3 14 5 25 6 25
2 0 9 36 17 90 8 59 8 350 0 416 -8 60 -42 181 -72 259 -107 272 -331 511
-600 639 -55 27 -112 51 -127 55 -15 3 -40 11 -55 18 -37 15 -30 13 -164 42
-64 14 -136 28 -160 31 -24 3 -55 7 -69 10 -39 7 -108 14 -200 20 -47 3 -110
8 -140 11 -30 2 -176 6 -325 9 -291 6 -344 7 -647 6 -10 0 -35 0 -55 0 -21 0
-47 0 -58 -1 -11 0 -48 -1 -83 -3 -34 -1 -62 0 -62 3 0 3 -25 5 -55 5 -30 0
-55 -4 -55 -8 0 -5 -4 -6 -9 -2 -9 5 -207 7 -469 4 -57 0 -105 1 -108 3 -2 3
-26 2 -54 -2 -27 -4 -50 -2 -50 2 0 5 -4 7 -8 4 -5 -3 -40 -5 -78 -5 -38 -1
-85 -1 -104 -2 -19 -1 -39 -1 -45 -1 -71 4 -238 6 -241 3z m2376 -965 c318
-42 471 -199 473 -486 2 -116 -4 -163 -28 -230 -29 -83 -71 -141 -151 -209
-21 -18 -117 -64 -169 -81 -41 -14 -56 -17 -110 -24 -16 -3 -30 -5 -30 -6 0
-8 -152 -12 -650 -16 l-580 -5 1 528 c1 290 2 530 3 533 2 8 1179 4 1241 -4z
m50 -1990 c89 -14 106 -17 145 -27 147 -39 237 -92 321 -191 22 -26 72 -126
81 -162 39 -160 40 -333 4 -446 -80 -252 -294 -367 -736 -396 -118 -8 -1104
-11 -1106 -4 -3 12 -5 1216 -2 1225 4 12 1218 12 1293 1z"/>
</g>
</svg>
